<svg width="27" height="34" fill="none" xmlns="http://www.w3.org/2000/svg"><path d="M13.62.0169551L13.472 0 0 1.40827V26.0042L13.473 34l13.43-7.9689.042-.0249V1.40827L13.62.0169551zM25.019 12.095L13.495 5.31992l-.001-.10373-.087.04987-.088-.05585v.10871L1.925 12.086V3.13869l11.548-1.2088 11.547 1.2088V12.095h-.001zM13.405 6.76908l11.518 6.69532-4.479 2.633-7.093-4.2099-.014 1.4113 5.904 3.5037-.86.5057-5.03-2.9841-.014 1.4112 3.827 2.269-.782.5217-3.031-1.7823-.014 1.4092 1.853 1.0882-1.8 1.0781L2.034 13.586l11.371-6.81692zM1.925 15.0871l11.411 6.773.016 1.0413-7.942-4.7155-.015 1.4122 7.979 4.7824.018 1.0731-7.973-4.7275-.013 1.4103 8.021 4.8093.046.0249 8.143-4.8591-.011-5.1634 3.415-2.0306v9.9946l-11.548 6.8538-11.547-6.8528v-9.826z" fill="#F0C52E"/></svg>