<svg width="200" height="211" fill="none" xmlns="http://www.w3.org/2000/svg"><circle cx="100" cy="111" r="100" fill="#68B738"/><g clip-path="url(#clip0)"><path d="M139.7 0h-.8a7 7 0 00-2.9 3.1c-1.1 2.2-2 4.5-2.6 6.8a3.2 3.2 0 01-3 2.6A14.8 14.8 0 00120 20a53.8 53.8 0 00-3.7 8c-2.8 7.2-5 14.8-7.7 22.1-1.3 3.3-1.3 3.3-5.1 3.3-4.6 0-4.2-.6-4.3 4.3 0 1.6.5 2.4 2.2 2.3.5 0 1.3-.3 1.5.4.2.7-.5 1-1 1.4a18 18 0 01-8.6 4.8c-3.8 1-7.7 1.8-11.4 3a57.4 57.4 0 00-25 15c-4 4.6-7.3 9.9-9.6 15.5a215.3 215.3 0 00-13.6 53.3c-1.3 8.6-2.2 17.1-3 25.8-.3 4.2-.7 8.5-.7 12.8h66.7c0-.9 0-1.8-.5-2.5a9.9 9.9 0 00-7.7-6.1c-1.4-.3-1.5-.7-.7-1.8 1.4-1.9 2.5-4 3.2-6.2 3.3-9.5 4.5-19.4 6.1-29.3a59 59 0 016.9-21.4 43 43 0 0111.2-12.6c1.6-1.3 1.7-1.3 2 .9l.3 4.2c.6 9.4.5 18.8-.3 28.1a120.8 120.8 0 004.2 46.7H148a10.7 10.7 0 00-8.5-8.8c-2.5-.4-5-.2-7.5.4-1.2.3-1.7 0-1.8-1.3-.8-10.5-.2-21 2-31.3 2.7-11.9 4.7-23.9 6.1-36 .5-4.9 2.1-9.6 4.6-13.8 2.4-4.2 4.4-8.6 6.8-12.8a11.5 11.5 0 00.8-10.3c-.5-1.4-1-2.8-1.7-4.2-2-3.8-4-7.6-5.8-11.5-1-2-.8-2.2 1.4-2.3 3.2 0 3.2 0 3.3-3.3v-1.3c0-1.3-.5-2-2-2h-3c-1.4 0-1.8-.5-1.5-2a12.3 12.3 0 0110.3-8.7c4.4-.4 8.9 0 13.2.9a2 2 0 002.5-1.3l2.6-6a2 2 0 00-.2-2.2 70.9 70.9 0 00-24-21.2 3 3 0 01-.6-1.4c-.5-2.8-1.3-5.6-2.5-8.2a7 7 0 00-2.8-3.4z" fill="#000"/></g><defs><clipPath id="clip0"><path fill="#fff" transform="translate(30)" d="M0 0h140v192H0z"/></clipPath></defs></svg>