<svg width="20" height="20" fill="none" xmlns="http://www.w3.org/2000/svg"><path d="M10 0l4 .1c1 0 1.8.2 2.5.5a5 5 0 012.9 2.9c.2.7.4 1.5.4 2.4a114.6 114.6 0 010 8.2c0 .9-.2 1.7-.4 2.4a5 5 0 01-3 2.9c-.6.2-1.4.4-2.3.4a114.6 114.6 0 01-8.2 0c-.9 0-1.7-.2-2.4-.4a5 5 0 01-2.9-3c-.3-.6-.4-1.4-.5-2.3a114.7 114.7 0 010-8.2c0-.9.2-1.7.5-2.4A5 5 0 013.5.6C4.2.3 5 .2 5.9.1h4zm0 1.4H5.7c-.7 0-1.3.2-2 .4-.8.4-1.5 1-1.9 2l-.4 2a123.5 123.5 0 000 8.4c0 .7.2 1.4.4 2 .4 1 1 1.6 2 2a123.7 123.7 0 0010.4.4c.7 0 1.4-.2 2-.4 1-.4 1.6-1 2-2a123.7 123.7 0 00.4-10.4c0-.8-.2-1.4-.4-2-.4-1-1-1.6-2-2l-2-.4H10zm0 12.5c1 0 2-.3 2.8-1.1.8-.8 1.1-1.7 1.1-2.8 0-1.1-.3-2-1.1-2.8A3.8 3.8 0 0010 6c-1.1 0-2 .4-2.8 1.2C6.4 8 6 8.9 6 10c0 1 .4 2 1.2 2.8.8.8 1.7 1.1 2.8 1.1zm0-9c1.4 0 2.6.5 3.6 1.5S15 8.6 15 10s-.5 2.6-1.5 3.6S11.4 15 10 15s-2.6-.5-3.6-1.5-1.5-2.2-1.5-3.6.5-2.6 1.5-3.6S8.6 4.9 10 4.9zm6.5-.2c0 .3-.2.6-.4.8-.2.3-.5.4-.8.4-.4 0-.6-.1-.9-.4-.2-.2-.3-.5-.3-.8a1.2 1.2 0 011.2-1.2c.3 0 .6.1.8.4.2.2.4.5.4.8z" fill="#666"/></svg>