<svg width="101" height="18" fill="none" xmlns="http://www.w3.org/2000/svg"><g clip-path="url(#clip0)" fill="#111"><path d="M1.3 16.5A6.9 6.9 0 010 12.2V5.8a7 7 0 011.2-4.3C2 .5 3.4 0 5.4 0s3.2.5 4 1.3a5.4 5.4 0 011.2 3.8v1.5H6.7V4.8a3.7 3.7 0 00-.2-1.5 1.2 1.2 0 00-1.1-.6c-.6 0-1 .1-1.1.5A4.8 4.8 0 004 5v8.3l.3 1.6c.2.3.6.5 1.1.5.6 0 1-.2 1-.5.3-.6.3-1.1.3-1.7v-1.8h3.9v1.5a5.8 5.8 0 01-1.2 3.9c-.8 1-2.1 1.4-4 1.4-2-.1-3.4-.6-4.1-1.6zM15.3.2h4.4l3.4 17.6h-3.7l-.6-3.7h-2.6l-.6 3.7h-3.8L15.2.2zm3.2 11.6l-1-6.9-.9 6.9h1.9zM25.8 3h-2.6V.3h9.4v2.9h-2.7v14.7h-4V3zm14-2.9h7v1.9h-4.6v5.8h3.6v1.7h-3.6v6.5h4.5v1.7h-7V.2zm9 0h1.7l5.1 11.6V.3h2v17.6h-1.5L51 5.8v12h-2.1V.2zM60 .2h7v1.9h-4.6v5.8h3.6v1.7h-3.6v6.5H67v1.7h-7V.2zm9 0h3.6c1.4 0 2.9.3 4 1.1.9.7 1.3 2 1.3 3.5 0 2.3-.7 3.7-2.2 4.1l2.5 8.8H76l-2.4-8.2h-2v8.2H69V.2zm3.4 7.6c.9 0 1.7-.2 2.3-.6.5-.4.7-1.2.7-2.3a4.8 4.8 0 00-.2-1.7 2 2 0 00-.9-1 3.7 3.7 0 00-1.7-.3h-1v5.8h.8zm8.7 8.7A7.6 7.6 0 0180 12V6.2c0-1.2 0-2.3.4-3.3.2-.9.7-1.6 1.5-2 .8-.6 1.9-.8 2.9-.7 1.6 0 2.8.3 3.5 1.2a5.8 5.8 0 011.1 3.8V6h-2.3v-.6c0-.7 0-1.3-.2-2 0-.3-.3-.7-.6-1a2.5 2.5 0 00-1.5-.3 2.4 2.4 0 00-1.6.5 1.8 1.8 0 00-.6 1.2l-.2 2v6.6c0 1 .1 2 .5 3 .3.5 1 .8 1.9.8a2 2 0 001.9-1c.4-1 .6-2 .5-3v-1.3H85V9.1h4.6v8.7H88l-.2-2c-.2.6-.6 1.2-1.2 1.6-.6.4-1.3.6-2 .6a4 4 0 01-3.4-1.5zm13.5-4.9L90.8.3h2.4l2.7 8.5L98.6.3h2.4l-3.9 11.3v6.2h-2.3v-6.2h-.1z"/></g><defs><clipPath id="clip0"><path fill="#fff" d="M0 0h101v18H0z"/></clipPath></defs></svg>