<svg display="none" xmlns="http://www.w3.org/2000/svg">
  <symbol id="logo-mob">
    <g>
      <path d="M6.07 20.72v-2.26a143.265 143.265 0 0120.17-1.33c0 .6 0 1.21-.06 1.82a25.518 25.518 0 016-1.82A16.67 16.67 0 00.19 20.39l5.88.33zM27.24 24.23c-1.16 1.28-1.39 1.2-1.39 3.45v9.18A16.64 16.64 0 0033.32 23a17.302 17.302 0 00-.32-3.1 33.109 33.109 0 00-5.76 4.33zM6.36 25.72s-3.79-1.44-5.19-1.83A8.541 8.541 0 000 23.61a16.65 16.65 0 008.68 14L6.36 25.72z" fill="#FDC305"/>
      <path d="M26.29 17.12A89.799 89.799 0 0024.89.65S24.75-.64 24 .41a14.22 14.22 0 00-1.2 3.94 70.34 70.34 0 00-12.77.34C9.24 2 7.85.75 7.18 1c-.67.25-.72 3.31-.72 3.31l-.33 14.1a143.211 143.211 0 0120.16-1.29z" fill="#F06351"/>
      <path d="M12.41 14c0-.09 1 .68 1.41.92.41.24.61.42.61.59 0 .17-.27.34-.63.34s-.91-.12-1-.27h1.23A8.34 8.34 0 0112.41 14zM19.89 14.11l-1.09 1.33c0 .06-.17.35.18.3a7.351 7.351 0 001.22-.29c.11 0 .07-.19-.11-.17-.18.02-.69.05-1 .11l.84-1.26s.07-.13-.04-.02zM16.75 20.2a2.3 2.3 0 001.09-1c.28-.65 0-.91-.44-1a2.43 2.43 0 00-1.74.34c-.39.36-.34.72-.05 1a5.34 5.34 0 001.14.66z" fill="#000"/>
      <path d="M16.35 21.45a1.92 1.92 0 01-.46.6 1.73 1.73 0 01-1 .38 2.15 2.15 0 01-1.47-.43 2.3 2.3 0 01-.53-.44c-.1-.11-.223-.2-.36-.26 0 0 .75 4.1 2.57 4.75 1.82.65 2.14-.75 2.2-1.13a5.61 5.61 0 00-.82-3.23c-.02-.31-.03-.11-.13-.24z" fill="#F06351"/>
      <path d="M14.71 22.59a3.44 3.44 0 01-2.361-1.466.14.14 0 01.031-.154.14.14 0 01.2 0 3.26 3.26 0 002.11 1.3 2.09 2.09 0 001.63-1l.14-.19.1.21s.37.76 1 .8c.63.04 1.05-.41 1.61-1.28a.14.14 0 01.2 0 .15.15 0 01.05.2c-.64 1-1.27 1.44-1.88 1.4a1.549 1.549 0 01-1.12-.76 2.26 2.26 0 01-1.71.94z" fill="#000"/>
      <path d="M26.24 18.92a58.634 58.634 0 00-5.07 5.19A31.633 31.633 0 0115.88 29c-.22-.53-1.62-1.51-1.62-1.51s-3.13-2.14-5.18-3.82a34.139 34.139 0 01-3.13-3l-2-.11a22.57 22.57 0 0012 8.8c.86-.14 3.27-1.86 5.07-3.26a58.13 58.13 0 005.94-5.89 6.15 6.15 0 001.14-2c-1.1.39-1.86.71-1.86.71z" fill="#F06351"/>
    </g>
    <defs>
      <clipPath id="clip0">
        <path fill="#fff" d="M0 0h33.32v37.61H0z"/>
      </clipPath>
    </defs>
  </symbol>
  <symbol id="logo-tabl">
    <g>
      <path d="M51.6 20.9A22.2 22.2 0 0034 7.4a21.9 21.9 0 00-20.3 8.4A22.4 22.4 0 0028 51.4l-1.5-6c1.4 1 2.7 1.7 4.1 2.3l.3 4c1.5 0 3-.1 4.6-.4v-.7c.2-1.6 1-4.5 1-6.4 1-1 1.9-2 2.6-3.3v.4c-.6 3.7-1.6 7.7-2.2 8.8l-.7 1a22 22 0 0017-20.8c.2-3.2-.4-6.5-1.6-9.4zM50.3 24c-.4.4-1.1.7-1.3-.5l-.1-1.9s-1.7-3-2.3-3c-.6 0-5 3-6.2 4.4-1 1-1.2 1-1.2 3 0 1.5.2 7 0 11.4l-7 1.8c-2.2.7-4.4 1.2-6.7 1.5l-.8-5h-.1l-2.3-11.5-4.5-1.6a3.2 3.2 0 00-3.4.6 4.4 4.4 0 00-1.5 3.3l.4 1.3c0 .4-1 .4-1.7.4s-.8-1.3-.2-2.8a19.9 19.9 0 013.3-5.7s.1-.3 1-.2l6.4.4v-2a122 122 0 0117.4-1.2v1.6c2.2-1 4.6-1.6 7-1.7a.8.8 0 01.7.3l2.3 3 1.6 2.5c-.2.6-.4 1.2-.8 1.6z" fill="#FDC305"/>
      <path d="M48.6 18.8l.9 1.2 1.6 2.6c-.2.5-.4 1-.8 1.5-.3.4-1.1.6-1.3-.5l-.1-1.9s-1.7-3-2.3-3c-.6 0-5 3-6.2 4.4-1 1-1.2 1-1.2 3l.1 9.7c1.6.2 3.8.6 4.5 1.7 0 0-.2-6.3 6.8-3 0 0 .2-8.5 9.8-6.3-3.2-4-7.2-7-11.8-9.4zM39.6 16.8c0-4.8-.4-9.6-1.2-14.3 0 0-.2-1.2-.8-.3-.5 1.1-.9 2.3-1 3.5-3.7-.2-7.4-.1-11 .3-.8-2.4-2-3.5-2.6-3.2-.5.3-.6 2.9-.6 2.9L22.1 18a122 122 0 0117.5-1.2z" fill="#F06351"/>
      <path d="M39 41c.2-1 .2-2.2.3-3.6l-7 1.9c-2.3.7-4.5 1.2-6.8 1.5l1 4.4v.3c1.4.8 2.7 1.6 4.1 2.2 2.1-1 4.1-2.2 6-3.6 1-.9 1.8-2 2.5-3.2z" fill="#E55645"/>
      <path d="M27.6 14l1.2.9.5.5c0 .2-.2.3-.5.3l-.9-.2c0-.1.5 0 .8 0h.3a7 7 0 01-1.4-1.4zM34 14.2l-1 1.2s0 .2.3.2a7 7 0 001-.2l-.1-.2-.9.1.8-1.1s0-.1 0 0zM31.3 19.5a2 2 0 001-.9c.2-.5 0-.8-.4-.8-.5-.1-1 0-1.5.3-.4.3-.3.6 0 .8.3.3.6.4 1 .6z" fill="#000"/>
      <path d="M31 20.6c0 .2-.2.4-.4.5-.2.2-.5.3-.8.3-.5 0-1 0-1.4-.3l-.4-.4-.3-.2s.6 3.5 2.2 4.1c1.5.6 1.8-.7 1.9-1 0-1-.2-2-.7-2.8v-.2z" fill="#F06351"/>
      <path d="M29.5 21.6a3 3 0 01-2-1.3.1.1 0 010-.1.1.1 0 01.1 0 2.8 2.8 0 002 1.1 1.8 1.8 0 001.3-.9l.1-.1.1.2s.4.6.9.7c.5 0 1-.4 1.4-1.2h.2a.1.1 0 010 .2c-.6.8-1.1 1.2-1.6 1.2a1.3 1.3 0 01-1-.6 2 2 0 01-1.5.8z" fill="#000"/>
      <path d="M31.2 33.3c1.8 0 3.3-1.5 3.3-3.3 0-1.8-1.5-3.2-3.3-3.2A3.2 3.2 0 0028 30c0 1.8 1.5 3.3 3.2 3.3z" fill="#FDC305"/>
      <path d="M35.5 27.4l-2.7 1.1 1-4.9-6.4 8.5L30 31l-1 4.9 6.5-8.5zm-6.3 3.3l3.5-4.7-.7 3.5 1.8-.7-3.7 4.7.7-3.5-1.6.7zM28 29.4c.5 0 1-.4 1-1 0-.5-.5-1-1-1a1 1 0 00-1 1c0 .6.4 1 1 1zM33.6 33c.3 0 .6-.4.6-.7 0-.4-.3-.7-.6-.7-.4 0-.7.3-.7.7 0 .3.3.6.7.6zM34.4 31c.2 0 .3 0 .3-.2s-.1-.3-.3-.3c-.2 0-.3 0-.3.3 0 .1.1.3.3.3z" fill="#111"/>
      <path d="M39.5 18.4l-4.4 4.5c-1.3 1.6-2.9 3-4.5 4.3-.2-.5-1.4-1.3-1.4-1.3l-4.5-3.4c-1-.8-1.9-1.7-2.7-2.6h-1.7c2.4 3.6 6 6.3 10.3 7.6.7-.1 2.8-1.6 4.4-2.9 1.8-1.5 3.5-3.3 5.1-5 .5-.6.8-1.2 1-1.8l-1.6.6zM22.3 24.3l-4.5-1.6a3.2 3.2 0 00-3.4.6 4.4 4.4 0 00-1.5 3.3l.4 1.3c0 .4-1 .4-1.7.4s-.8-1.3-.2-2.8c.4-1 .9-2.2 1.5-3.2A172 172 0 000 30.5c2.4-.2 4.7-.1 7 .2 4.6.4 4.4 4 4.4 4a33 33 0 014.8-1c1.8 0 2 2 2 2l.4 3.3c.7-.8 1.5-1.5 2.3-2 1-1 2.4-1.4 3.8-1.2l-2.4-11.5z" fill="#F06351"/>
      <path d="M73.8 36.5c-.9-1.3-1.3-3-1.2-4.5v-6.5c-.1-1.6.3-3.2 1.2-4.6.8-1 2.1-1.5 4-1.5 2 0 3.3.4 4 1.3a5.9 5.9 0 011.1 4v1.5h-3.5v-1.7l-.1-1.3c0-.3-.2-.6-.5-.8a1.3 1.3 0 00-1-.3 1.2 1.2 0 00-1.2.6c-.3.6-.4 1.3-.3 2v8.2c0 .6 0 1.3.3 1.9a1.3 1.3 0 001.3.6 1.2 1.2 0 001.2-.6c.2-.6.3-1.3.2-2v-1.6H83v1.5c.1 1.4-.3 2.8-1 4-.8 1-2.1 1.4-4 1.4s-3.3-.5-4.1-1.6zM87.8 19.6h4L95.4 38H92l-.6-4h-2.8l-.7 4h-3.5l3.5-18.3zm3.1 12l-1-7.4-1.1 7.3h2.1zM98 22.4h-2.8v-2.8h9.2v2.8h-2.8v15.4H98V22.4z" fill="#111"/>
      <path d="M111.7 19.6h7v2h-4.5v6h3.6v1.7h-3.6V36h4.5v1.8h-7V19.6zM120.7 19.6h1.8l5.1 12.1v-12h2.1v18.2h-1.6L123 25.4v12.4h-2l-.2-18.2zM132.5 19.6h7v2H135v6h3.7v1.7H135V36h4.5v1.8h-7V19.6zM141.6 19.6h3.6a6 6 0 014 1.2c.9.7 1.3 2 1.3 3.7 0 2.3-.7 3.7-2.2 4.2l2.6 9.1h-2.5l-2.3-8.5h-2v8.5h-2.5V19.6zm3.4 7.8c.9.1 1.7-.1 2.3-.6a3.1 3.1 0 00.8-2.4c0-.6-.1-1.2-.3-1.7a1.6 1.6 0 00-.9-1 4 4 0 00-1.7-.3H144v6h1zM154 36.5c-1-1.4-1.3-3-1.2-4.7v-6c0-1.2.1-2.4.4-3.5.3-.9.8-1.6 1.5-2.1a5 5 0 013-.7 4.5 4.5 0 013.5 1.2 6.1 6.1 0 011.1 4v.8H160v-.6c0-.7 0-1.4-.2-2 0-.5-.3-.8-.6-1.1-.5-.3-1-.4-1.5-.4-.6 0-1.1.2-1.6.5-.3.4-.6.8-.6 1.3a13 13 0 00-.2 2.2V32c0 1 .1 2.1.5 3a2.4 2.4 0 003.9 0c.4-1 .6-2.1.5-3.2v-1.3h-2.3v-1.8h4.6v9h-1.6l-.2-2a3.2 3.2 0 01-3.2 2.3 4 4 0 01-3.6-1.6zM167.7 31.4l-3.9-11.8h2.4l2.7 8.8 2.7-8.8h2.4l-3.9 11.8v6.4h-2.4v-6.4z" fill="#444"/>
    </g>
    <defs>
      <clipPath id="clip0">
        <path fill="#fff" d="M0 0h174v51.7H0z"/>
      </clipPath>
    </defs>
  </symbol>
  <symbol id="logo-desk">
    <g>
      <path d="M59.9 23.8A25.4 25.4 0 0039.6 8.4 25.8 25.8 0 0016 18a25.3 25.3 0 0016.5 40.7c-.6-2-1.2-4.3-1.7-6.8 1.5 1 3.1 1.8 4.8 2.6l.3 4.5c1.7 0 3.5-.1 5.3-.5v-.7c.3-1.9 1-5.2 1.2-7.4 1.2-1 2.2-2.3 3-3.7l-.1.5c-.6 4.2-1.7 8.7-2.4 10l-.8 1.1a25.7 25.7 0 0019.7-23.7c.2-3.7-.5-7.4-2-10.8zm-1.5 3.8c-.4.4-1.3.7-1.5-.6a34 34 0 01-.2-2.2s-2-3.4-2.6-3.4c-.7 0-5.9 3.4-7.2 5-1.2 1.2-1.4 1.1-1.4 3.4 0 1.7.2 8 0 13l-8 2.1c-2.6.7-5.2 1.3-7.9 1.7l-1-5.8h-.1l-2.6-13s-3.8-1.5-5.2-1.8a3.8 3.8 0 00-4 .6 5 5 0 00-1.7 3.8l.5 1.4c0 .5-1.2.5-2 .5s-1-1.5-.3-3.1a22.5 22.5 0 013.9-6.6s.1-.4 1.2-.3l7.3.5v-2.3A144 144 0 0146 19.2V21c2.6-1.2 5.3-1.8 8.1-2a1 1 0 01.8.4l2.7 3.4 1.8 3-.9 1.8z" fill="#FDC305"/>
      <path d="M56.5 21.5l1 1.3 1.8 3c-.2.6-.5 1.2-.9 1.7-.4.4-1.3.7-1.5-.6l-.2-2.1s-2-3.4-2.6-3.4c-.7 0-5.9 3.4-7.2 5-1.2 1.2-1.4 1.1-1.4 3.4 0 1.4.2 6.6.1 11.1 1.8.2 4.5.7 5.3 1.9 0 0-.3-7.2 7.8-3.4 0 0 .3-9.7 11.5-7.3-3.8-4.4-8.5-8-13.7-10.6zM46 19.2c0-5.5-.5-11-1.5-16.4 0 0-.1-1.3-.8-.2a14 14 0 00-1.2 4c-4.3-.3-8.6-.2-12.9.3-.8-2.8-2.2-4-2.8-3.7-.7.4-.8 3.3-.8 3.3l-.3 14a144 144 0 0120.2-1.3z" fill="#F06351"/>
      <path d="M45.4 46.7l.2-4-8.2 2.2c-2.5.7-5.1 1.3-7.8 1.7l1.2 5v.3c1.5 1 3.1 1.8 4.8 2.5 2.4-1.1 4.7-2.5 6.9-4 1.1-1 2-2.3 2.9-3.7z" fill="#E55645"/>
      <path d="M32 16l1.4 1c.4.2.6.4.6.6 0 .2-.2.3-.6.3-.4 0-1 0-1-.2s.6 0 1 0h.2A8 8 0 0132 16zM39.5 16.2l-1 1.3c-.2 0-.3.4.1.3l1.2-.3c.1 0 0-.2-.1-.1h-1l.9-1.2s0-.1-.1 0zM36.4 22.3c.4-.2.8-.6 1-1 .3-.7 0-1-.4-1-.6-.1-1.2 0-1.7.3-.4.4-.4.7 0 1l1 .7z" fill="#000"/>
      <path d="M36 23.5a2 2 0 01-.5.6c-.2.2-.6.4-1 .4-.5 0-1-.1-1.5-.5a2 2 0 01-.5-.4 1 1 0 00-.4-.3s.8 4.1 2.6 4.8c1.8.6 2.1-.8 2.2-1.1 0-1.2-.2-2.3-.8-3.3 0-.3 0 0-.1-.2z" fill="#F06351"/>
      <path d="M34.3 24.6a3.5 3.5 0 01-2.3-1.4.1.1 0 010-.2.1.1 0 01.1 0 3.2 3.2 0 002.2 1.3 2.1 2.1 0 001.6-1l.1-.2.1.3s.4.7 1 .8c.7 0 1.1-.5 1.7-1.3a.1.1 0 01.2 0 .1.1 0 010 .1c-.7 1-1.3 1.5-1.9 1.4a1.6 1.6 0 01-1.1-.7 2.3 2.3 0 01-1.7 1z" fill="#000"/>
      <path d="M36.3 38c2 0 3.7-1.7 3.7-3.7s-1.7-3.7-3.7-3.7c-2.1 0-3.8 1.6-3.8 3.7 0 2 1.7 3.7 3.8 3.7z" fill="#FDC305"/>
      <path d="M41.2 31.2l-3.1 1.3 1.2-5.5-7.5 9.6 3-1.3-1 5.6 7.4-9.7zM33.8 35l4.2-5.3-.8 4 2-.9-4.2 5.4.8-4-2 .8zM32.4 33.6c.7 0 1.2-.5 1.2-1.1 0-.6-.5-1.1-1.2-1.1-.6 0-1 .5-1 1 0 .7.4 1.2 1 1.2zM39 37.6c.4 0 .8-.3.8-.8 0-.4-.4-.8-.8-.8-.5 0-.8.4-.8.8 0 .5.3.8.8.8zM40 35.5c.1 0 .3-.2.3-.4s-.2-.3-.4-.3-.3.1-.3.3c0 .2.1.4.3.4z" fill="#111"/>
      <path d="M45.9 21a57.2 57.2 0 00-5.1 5.2 31.8 31.8 0 01-5.3 4.8c-.2-.5-1.6-1.5-1.6-1.5s-3.2-2.1-5.2-3.8l-3.2-3h-2c2.9 4.1 7.1 7.2 12 8.7.9-.2 3.3-1.9 5.1-3.3 2.1-1.8 4.1-3.7 6-5.8.5-.6.9-1.3 1.1-2L46 21z" fill="#F06351"/>
      <path d="M65.2 3.5l-8.4 9.3-1.3-2L63.7 0l1.5 3.5zM62.7 17.1l5.5-4-.8-3.8-5.4 4.8.7 3zM60 49l6 3.1 3-2.3-6.6-2.7-2.5 1.9zM2 6l3-3.4 9.3 9-1.2 2.2L1.9 5.9zM7.4 16.1l-4.7-3-2.4 3.8 5.1 2.4 2-3.2zM14 52.1l-4.6 3.3 2.8 3.6 4-4-2.3-2.9z" fill="#FDC305"/>
      <path d="M26 27.8S22 26.3 20.6 26a3.8 3.8 0 00-4 .6 5 5 0 00-1.7 3.8l.5 1.4c0 .5-1.2.5-2 .5s-1-1.5-.3-3.1c.5-1.3 1-2.6 1.8-3.7-5.4 2.8-15 9.3-15 9.3 2.7-.2 5.5-.1 8.2.2 5.2.5 5 4.6 5 4.6a39 39 0 015.6-1c2.1-.2 2.3 2 2.3 2l.5 3.9c.8-.9 1.7-1.7 2.7-2.4a6 6 0 014.4-1.3l-2.8-13z" fill="#F06351"/>
      <path d="M85.7 41.7a8.2 8.2 0 01-1.4-5.2v-7.4c-.2-1.9.3-3.7 1.3-5.2 1-1.2 2.6-1.8 4.8-1.8 2.2 0 3.8.5 4.5 1.6 1 1.2 1.5 2.8 1.4 4.4V30H92v-2l-.1-1.4c0-.4-.2-.7-.5-1a1.6 1.6 0 00-1.1-.3 1.5 1.5 0 00-1.5.7c-.3.7-.4 1.5-.4 2.2v9.4c0 .8.1 1.5.4 2.2a1.5 1.5 0 001.5.8 1.4 1.4 0 001.4-.8c.2-.7.3-1.4.3-2.2v-2h4.1v1.8c.2 1.6-.3 3.2-1.2 4.5-.9 1.1-2.4 1.7-4.6 1.7-2.1 0-3.8-.6-4.7-1.8zM102 22.4h4.7l4 20.8h-4l-.7-4.6h-3.3l-.8 4.6h-4l4-20.8zm3.6 13.6l-1.3-8.4-1.2 8.4h2.5zM113.7 25.5h-3.2v-3.1h10.7v3.1H118v17.7h-4.3V25.5z" fill="#111"/>
      <path d="M129.6 22.4h8.1v2.2h-5.2v6.8h4.3v2h-4.3v7.7h5.3v2.1h-8.2V22.4zM140.2 22.4h2l6 13.8V22.4h2.4v20.8h-1.9l-6-14.2v14.2h-2.5V22.4zM153.8 22.4h8.1v2.2h-5.2v6.8h4.3v2h-4.2v7.7h5.2v2.1h-8.2V22.4zM164.4 22.4h4.2a7 7 0 014.6 1.3c1 .9 1.5 2.3 1.5 4.2 0 2.7-.8 4.3-2.6 4.9l3 10.4h-2.8l-2.7-9.8h-2.3v9.8h-3V22.4zm4 9c1 0 1.9-.3 2.7-.8a3.5 3.5 0 00.8-2.7c0-.7-.1-1.4-.3-2a1.9 1.9 0 00-1-1c-.7-.3-1.4-.5-2-.4h-1.4v6.9h1.2zM178.7 41.7a9.1 9.1 0 01-1.3-5.3v-7c0-1.3.1-2.7.5-4 .3-1 1-1.8 1.7-2.3a6 6 0 013.4-.9 5.3 5.3 0 014.2 1.5c1 1.3 1.4 3 1.3 4.6v.8h-2.8v-.7c0-.8 0-1.5-.2-2.3 0-.5-.3-1-.7-1.2a3 3 0 00-1.7-.4c-.7 0-1.3.1-1.9.5-.4.4-.6 1-.7 1.5l-.2 2.5v7.7c0 1.2.1 2.4.6 3.4a2.8 2.8 0 003.5.8c.4-.2.7-.5 1-.9a8 8 0 00.6-3.6V35h-2.7v-2.1h5.3v10.3h-1.8l-.3-2.4a3.7 3.7 0 01-3.7 2.7 4.7 4.7 0 01-4.1-1.8zM194.7 35.9l-4.5-13.5h2.7l3.2 10 3.2-10h2.7l-4.5 13.5v7.3h-2.8v-7.3z" fill="#444"/>
    </g>
    <defs>
      <clipPath id="clip0">
        <path fill="#fff" d="M0 0h202v59H0z"/>
      </clipPath>
    </defs>
  </symbol>
  <symbol id="logo-word">
    <g>
      <path d="M1.264 16.538A6.865 6.865 0 010 12.231V5.846a6.95 6.95 0 011.185-4.384C2.055.462 3.398 0 5.374 0s3.24.462 4.03 1.308a5.422 5.422 0 011.186 3.769v1.538H6.718V4.846a3.693 3.693 0 00-.238-1.538 1.12 1.12 0 00-.456-.473 1.163 1.163 0 00-.65-.143c-.553 0-.948.154-1.106.539a4.846 4.846 0 00-.237 1.692v8.23a3.111 3.111 0 00.316 1.616c.158.385.553.539 1.106.539s.87-.154 1.027-.539c.18-.52.26-1.067.238-1.615v-1.846h3.872v1.538a5.775 5.775 0 01-1.185 3.846c-.79.923-2.134 1.385-4.031 1.385-1.897-.077-3.32-.539-4.11-1.539zM15.253.23h4.504l3.32 17.54H19.44l-.632-3.693h-2.608l-.632 3.692h-3.715L15.253.231zm3.24 11.54l-.948-6.847-.949 6.846h1.897zM25.843 3.154h-2.687V.23h9.404v2.846h-2.687v14.692h-4.03V3.154zM39.752.23h6.955v1.847h-4.505v5.77h3.635v1.768h-3.635v6.462h4.505v1.77h-7.034V.23h.079zM48.761.23H50.5l5.137 11.616V.231h2.055v17.538h-1.58l-5.217-12v12h-2.134V.231zM60.063.23h6.954v1.847h-4.504v5.77h3.635v1.768h-3.635v6.462h4.504v1.77h-6.954V.23zM69.072.23h3.635a6.451 6.451 0 014.03 1.078c.87.692 1.265 1.923 1.265 3.538 0 2.23-.71 3.616-2.212 4.077l2.528 8.77h-2.45l-2.37-8.231h-1.976v8.23h-2.529V.231h.079zm3.477 7.54a3.524 3.524 0 002.292-.616c.474-.385.711-1.154.711-2.308a4.848 4.848 0 00-.237-1.692 1.975 1.975 0 00-.869-.923 3.69 3.69 0 00-1.739-.308h-1.106v5.77h.948v.076zM81.163 16.462A7.613 7.613 0 0180.058 12V6.154a12.26 12.26 0 01.395-3.308 3.916 3.916 0 011.502-2c.882-.508 1.9-.75 2.924-.692 1.66 0 2.845.384 3.556 1.23a5.771 5.771 0 011.107 3.847v.615H87.17v-.538a11.03 11.03 0 00-.158-1.923 1.533 1.533 0 00-.633-1A2.493 2.493 0 0084.878 2a2.417 2.417 0 00-1.58.462c-.187.152-.338.34-.447.551a1.701 1.701 0 00-.186.68 14.01 14.01 0 00-.158 2.076v6.539a6.818 6.818 0 00.474 2.923c.316.615.949.846 1.897.846.374.045.754-.018 1.092-.182.337-.165.617-.422.805-.741a6.908 6.908 0 00.553-3.077v-1.23h-2.292v-1.77h4.584v8.692h-1.58l-.238-2a3.143 3.143 0 01-1.226 1.658 3.288 3.288 0 01-2.014.573 4.046 4.046 0 01-1.899-.352 3.932 3.932 0 01-1.5-1.186zM94.678 11.615L90.805.308h2.371l2.766 8.461L98.63.308H101l-3.873 11.307v6.154h-2.37v-6.154h-.08z"/>
    </g>
    <defs>
      <clipPath id="clip0">
        <path fill="#fff" d="M0 0h101v18H0z"/>
      </clipPath>
    </defs>
  </symbol>
  <symbol id="arrow">
    <path stroke="#000" stroke-width="2" d="M0 6h18"/>
    <path d="M24 6l-6.75 5.196V.804L24 6z" fill="#000"/>
  </symbol>
  <symbol id="cat-1">
    <circle cx="100" cy="111" r="100" fill="#68B738"/>
    <g clip-path="url(#clip0)">
      <path d="M139.7 0h-.8a7 7 0 00-2.9 3.1c-1.1 2.2-2 4.5-2.6 6.8a3.2 3.2 0 01-3 2.6A14.8 14.8 0 00120 20a53.8 53.8 0 00-3.7 8c-2.8 7.2-5 14.8-7.7 22.1-1.3 3.3-1.3 3.3-5.1 3.3-4.6 0-4.2-.6-4.3 4.3 0 1.6.5 2.4 2.2 2.3.5 0 1.3-.3 1.5.4.2.7-.5 1-1 1.4a18 18 0 01-8.6 4.8c-3.8 1-7.7 1.8-11.4 3a57.4 57.4 0 00-25 15c-4 4.6-7.3 9.9-9.6 15.5a215.3 215.3 0 00-13.6 53.3c-1.3 8.6-2.2 17.1-3 25.8-.3 4.2-.7 8.5-.7 12.8h66.7c0-.9 0-1.8-.5-2.5a9.9 9.9 0 00-7.7-6.1c-1.4-.3-1.5-.7-.7-1.8 1.4-1.9 2.5-4 3.2-6.2 3.3-9.5 4.5-19.4 6.1-29.3a59 59 0 016.9-21.4 43 43 0 0111.2-12.6c1.6-1.3 1.7-1.3 2 .9l.3 4.2c.6 9.4.5 18.8-.3 28.1a120.8 120.8 0 004.2 46.7H148a10.7 10.7 0 00-8.5-8.8c-2.5-.4-5-.2-7.5.4-1.2.3-1.7 0-1.8-1.3-.8-10.5-.2-21 2-31.3 2.7-11.9 4.7-23.9 6.1-36 .5-4.9 2.1-9.6 4.6-13.8 2.4-4.2 4.4-8.6 6.8-12.8a11.5 11.5 0 00.8-10.3c-.5-1.4-1-2.8-1.7-4.2-2-3.8-4-7.6-5.8-11.5-1-2-.8-2.2 1.4-2.3 3.2 0 3.2 0 3.3-3.3v-1.3c0-1.3-.5-2-2-2h-3c-1.4 0-1.8-.5-1.5-2a12.3 12.3 0 0110.3-8.7c4.4-.4 8.9 0 13.2.9a2 2 0 002.5-1.3l2.6-6a2 2 0 00-.2-2.2 70.9 70.9 0 00-24-21.2 3 3 0 01-.6-1.4c-.5-2.8-1.3-5.6-2.5-8.2a7 7 0 00-2.8-3.4z" fill="#000"/>
    </g>
    <defs>
      <clipPath id="clip0">
        <path fill="#fff" transform="translate(30)" d="M0 0h140v192H0z"/>
      </clipPath>
    </defs>
  </symbol>
  <symbol id="cat-2">
    <circle cx="34.5" cy="25" r="25" fill="#68B738"/>
    <g clip-path="url(#clip0)">
      <path d="M61.5 13.9c.6-1 1.4-1.7 2.3-2.3.5-.3.8-.3 1.1.3.4 1 .8 2 .4 3a1.1 1.1 0 00.3 1l.8 1.2a3.1 3.1 0 01.4 3.1c-.2.5-.2 1-.1 1.6v1.4a1.9 1.9 0 01-1.4 1.7c-.6 0-1.2.4-1.5 1a.5.5 0 01-.5.2c-.6.1-2.1-1.3-2.1-1.9V24c0-1.8 0-1.9-1.7-2.6-.3-.2-.7-.4-.9-.7-.3-.4-.7-.3-1.1-.2-.5.2-.8.5-.7 1 .2 1.2.2 2.4.2 3.7v.3c1.6 2.3 2.2 5 3 7.5.5 2 1.6 3 3.6 3.1l1 .2a2 2 0 011.7 1.6c.4 1 .2 1.3-.9 1.3h-3.3c-.4 0-.8-.1-1.1-.4-.5-.4-1-.8-1.7-1-.7-.3-1.3-.7-1.7-1.3l-2-2.3c-1.4-1.4-2.9-2.8-4.2-4.3-1-1-1.6-2.4-1.6-3.8 0-.4-.1-.6-.6-.4a1 1 0 01-.5.1c-1.4 0-2.1.9-2.6 2.1l-1.6 3.1c-.3.7-.5 1.4-.5 2.1 0 1.2.3 1.6 1.4 2 .7.3 1.4.5 1.7 1.2.4.8.3 1-.6 1h-3.4a1 1 0 01-.9-.5l-.9-1.5a3 3 0 01-.3-2.7 6 6 0 000-2.6 4.2 4.2 0 01.9-3.5c.3-.4.3-.5-.3-.6a25 25 0 01-5.9-2.2c-1.6-.6-1.9-.5-2.4 1.2-.3 1.4-.8 2.8-1 4.3-.4 1.5 0 3 .5 4.5.2.6.8.6 1.3.8 1 .3 1.8.6 2.2 1.7.4.8.3.9-.5.9h-2.6c-.8 0-1.6-.2-2.2-.7-2.4-1.6-3-4-3.3-6.7 0-1.7-1-3-2-4.2-.2-.3-.4-.3-.7-.1l-3.4 1.4c-2.4.9-4.5 2.4-6 4.4-.6.8-1 1.7-1.2 2.6-.1.9.2 1.3 1 1.5 1 .3 1.4.8 1.5 1.8 0 .4-.1.5-.5.5h-4a.8.8 0 01-.7-.4c-.6-.7-1-1.7-1-2.7 0-1.7.2-3.5.5-5.1a3.1 3.1 0 011.7-2.4c3-1.4 4.5-4.1 5.9-6.8.3-.6 0-.7-.4-.7-1.4.2-2.8.8-3.9 1.7-1.5 1-2.9 2.2-4.2 3.5A8.3 8.3 0 015.3 27C1.5 27.4-.2 25.3 0 22c0-1.1.5-2.2 1.2-3a2.1 2.1 0 012.2-.8c.8.2 1 .6.7 1.3l-.5.9-.5 1c-.6 1.5.2 2.6 1.7 2.7 1.7.1 3-.6 4.3-1.6 1.5-1.2 2.9-2.6 4-4.1a10.4 10.4 0 017.2-4c1.1-.2 2.1-.7 3.3-1 2-.6 4.1-1 6.3-.9 1 0 2-.1 2.9-.6 2.5-1 5-1 7.6-.5l5.9 1.4c1.2.3 2.4.2 3.5 0 2.2-.6 4.4-1 6.7-1a9 9 0 014.3.8c1 .4 1 .4.8 1.4z" fill="#000"/>
    </g>
    <defs>
      <clipPath id="clip0">
        <path fill="#fff" transform="translate(0 11)" d="M0 0h67v28H0z"/>
      </clipPath>
    </defs>
  </symbol>
  <symbol id="leaf">
    <g clip-path="url(#clip0)">
      <path d="M27.844 2.767c-.1-.45-.48-.767-.912-.767h-.005c-4.938.033-16.945.916-21.793 8.38-2.518 3.878-2.735 8.913-.644 14.965.016.047.048.079.07.122-.747 1.973-1.037 3.286-1.044 3.323-.11.54.214 1.072.72 1.188a.88.88 0 00.197.022c.433 0 .822-.321.916-.79.02-.102 2.409-10.373 10.854-16.378.431-.306.547-.927.26-1.387-.288-.46-.87-.585-1.3-.277-4.79 3.405-7.739 8.008-9.473 11.656-1.242-4.578-.916-8.377.986-11.305 3.743-5.764 12.622-7.154 17.982-7.448C23.505 5.872 22.245 9.174 22.245 15c0 3.12-.83 5.522-2.465 7.14-2.62 2.591-6.88 2.834-9.993 2.584-.518-.045-.967.371-1.006.922-.04.55.347 1.03.863 1.072.623.051 1.29.082 1.981.082 3.17 0 6.87-.663 9.43-3.194 2.034-2.011 3.065-4.906 3.065-8.605 0-9.099 3.216-11.096 3.232-11.105.39-.209.594-.677.492-1.129z" fill="#fff"/>
    </g>
    <defs>
      <clipPath id="clip0">
        <path fill="#fff" d="M0 0h30v32H0z"/>
      </clipPath>
    </defs>
  </symbol>
  <symbol id="tub">
    <g clip-path="url(#clip0)" fill="#fff">
      <path d="M20.776 18.473c-1.706 0-3.088 1.479-3.088 3.301 0 1.824 1.383 3.302 3.088 3.302 1.706 0 3.088-1.478 3.088-3.302 0-1.823-1.383-3.3-3.088-3.3zm0 5.013c-.884 0-1.6-.766-1.6-1.71 0-.947.716-1.713 1.6-1.713.884 0 1.602.766 1.602 1.712 0 .945-.718 1.711-1.602 1.711zM11.607-.01c-1.76 0-3.187 1.525-3.187 3.407 0 1.882 1.426 3.407 3.187 3.407 1.76 0 3.187-1.524 3.187-3.407S13.367-.01 11.607-.01zm0 5.476c-1.07 0-1.936-.926-1.936-2.07 0-1.142.866-2.069 1.935-2.069 1.07 0 1.936.927 1.936 2.07 0 1.143-.866 2.069-1.936 2.069zM8.227 17.61c-1.294 0-2.341 1.12-2.341 2.503s1.047 2.503 2.34 2.503c1.295 0 2.342-1.12 2.342-2.503 0-1.382-1.047-2.503-2.341-2.503zM8 19.5c-.459 0 1.158 1.104 1.158.613 0-.49-1.617.387-1.158.387.459 0 1.057-.877 1.057-.388 0 .49-.598-.612-1.057-.612zM18.5 9.763s3.04-.839 6.178 1.494c.907.76 1.765 1.336 1.152 2.122-.343.34-.637.657-1.716-.524-1.054-.76-2.72-1.898-5.614-1.442-1.128.237-1.961.551-3.556 2.15-1.593 1.598-3.972 2.725-6.497 2.489-2.525-.236-3.849-1.258-5.246-2.542-.294-.42-.294-.865-.123-1.127.171-.262.833-.524 1.201-.132.368.394 2.109 1.966 3.825 2.07 1.716.105 3.433.21 5.737-1.965 2.306-2.174 3.458-2.331 4.66-2.593z"/>
      <mask id="a">
        <path d="M28.646 26.816V8.157c0-.578-.374-.65-.524-.655h-.506c-.493 0-.536.557-.538.739V8.3c.002 3.609.01 18.254-.002 18.54a2.681 2.681 0 01-.82 1.887c-.809.695-1.618.603-1.618.603s-20.177 0-20.655-.026c-.38-.066-1.042-.21-1.606-1.01-.564-.798-.453-1.847-.453-1.847V8.315c0-.839-.675-.812-.675-.812H.942c-.536 0-.585.588-.588.776v18.537c0 1.337.453 2.398 1.548 3.337 1.094.939 2.375.856 2.375.856s19.723 0 20.581-.002c.859-.003 1.986-.417 2.916-1.556.93-1.138.872-2.635.872-2.635z"/>
      </mask>
      <path d="M28.646 26.816V8.157c0-.578-.374-.65-.524-.655h-.506c-.493 0-.536.557-.538.739V8.3c.002 3.609.01 18.254-.002 18.54a2.681 2.681 0 01-.82 1.887c-.809.695-1.618.603-1.618.603s-20.177 0-20.655-.026c-.38-.066-1.042-.21-1.606-1.01-.564-.798-.453-1.847-.453-1.847V8.315c0-.839-.675-.812-.675-.812H.942c-.536 0-.585.588-.588.776v18.537c0 1.337.453 2.398 1.548 3.337 1.094.939 2.375.856 2.375.856s19.723 0 20.581-.002c.859-.003 1.986-.417 2.916-1.556.93-1.138.872-2.635.872-2.635z"/>
      <path d="M28.646 26.816h-20v.387l.015.387 19.985-.774zm-.524-19.314l.71-19.987-.355-.013h-.355v20zm-1.044.739l-20-.15v.15h20zm0 .06h-20v.008l20-.008zm-.002 18.54l-19.985-.758v.013l19.986.745zm-.82 1.887l13.039 15.165.431-.37.41-.396-13.88-14.399zm-1.618.603l2.26-19.872-1.127-.128h-1.133v20zm-20.655-.026L.588 49.015l1.134.195 1.148.064 1.113-19.97zm-1.606-1.01l-16.344 11.528.004.006 16.34-11.533zm-.453-1.847l19.89 2.098.11-1.046v-1.052h-20zM1.249 7.503v20h.388l.388-.015-.776-19.985zm-.895.776l-19.998-.289-.002.145v.144h20zm1.548 21.874L-11.124 45.33 1.903 30.153zm2.375.856v-20h-.643l-.64.041 1.283 19.96zm23.497-1.558l15.49 12.654.005-.008-15.495-12.646zm20.872-2.635V8.157h-40v18.659h40zm0-18.659c0-4.97-1.859-11.419-7.618-16.084-4.89-3.96-10.03-4.481-12.196-4.558l-1.42 39.974a19.462 19.462 0 01-11.56-4.332c-5.535-4.483-7.206-10.608-7.206-15h40zM28.122-12.498h-.506v40h.506v-40zm-.506 0a20.47 20.47 0 00-12.283 4.083A20.526 20.526 0 008.914-.38 21.134 21.134 0 007.079 8.09l39.999.299c-.006.733-.014 3.914-1.667 7.598a19.474 19.474 0 01-6.096 7.61 19.53 19.53 0 01-11.699 3.904v-40zM7.078 8.241V8.292h40V8.29v-.001-.001-.001-.001-.001-.001-.001-.001-.001-.001-.001-.001-.001-.001-.001-.001-.001-.001-.001-.001-.001-.001-.001-.001-.001-.001-.001-.001-.001-.001-.001-.001-.001-.001-.001-.001-.001-.001-.001-.001-.001-.001-.001-.001-.001-.001-.001-.001-.001h-40zm0 .05V8.302h40V8.3v-.001-.001-.001-.001-.001-.001-.001-.001h-40zm0 .018l.004 10.511a8367.03 8367.03 0 01-.002 7.252c-.002.788-.006.45.01.011L47.063 27.6c.02-.51.018-1.37.018-1.45l.002-1.808v-5.528c0-4.15-.003-8.719-.004-10.52l-40 .016zm.012 17.787c.05-1.35.384-7.042 5.285-11.767l27.761 28.798c6.396-6.166 6.852-13.536 6.927-15.54L7.09 26.096zm6.126-12.533a17.513 17.513 0 017.807-3.843 17.962 17.962 0 014.628-.362 19.227 19.227 0 011.172.093l.037.004.019.002c.01.001.019.002-2.241 19.874-2.26 19.872-2.25 19.873-2.241 19.874l.018.003c.013 0 .025.002.038.004a14.8 14.8 0 00.553.053 20.798 20.798 0 002.275.064 22.044 22.044 0 003.983-.468 22.487 22.487 0 0010.03-4.968l-26.078-30.33zm11.422 15.768v-20h-.001-.865a17598.02 17598.02 0 01-16.322-.01l-2.357-.007c-1.071-.005-.613-.013.002.022L2.87 49.274c.97.054 7.17.051 11.606.054l6.997.003h3.164v-20zM7.377 9.595c.432.074 2.526.427 4.938 1.653a17.618 17.618 0 016.401 5.514L-13.963 39.83c4.995 7.076 11.877 8.725 14.551 9.186l6.789-39.42zm11.344 7.173c2.348 3.33 2.908 6.51 3.08 7.955a16.586 16.586 0 01.049 3.439 18.522 18.522 0 01-.027.29l-.005.047-.002.024-.002.012c0 .005 0 .011-19.89-2.087-19.89-2.098-19.89-2.092-19.891-2.086l-.002.012a19.73 19.73 0 00-.036.385 21.677 21.677 0 00-.078 1.584c-.011.81.016 1.863.16 3.08.257 2.169 1.043 6.27 3.956 10.4L18.72 16.768zm3.203 9.68V8.315h-40v18.133h40zm0-18.133c0-6.89-3.412-14.004-10.265-17.999a20.69 20.69 0 00-11.136-2.8H.498c-.012.001-.024.002.751 19.987.776 19.985.763 19.985.751 19.985l-.024.001-.05.002a28.574 28.574 0 01-.3.008 19.374 19.374 0 01-10.112-2.626 19.387 19.387 0 01-7.239-7.434 19.028 19.028 0 01-2.351-9.124h40zM1.248-12.497H.942v40h.307v-40zm-.307 0c-4.037 0-8.32 1.191-12.061 3.905a20.562 20.562 0 00-6.553 7.946 21.166 21.166 0 00-1.972 8.636l39.996.578c-.011.758-.045 3.996-1.784 7.718a19.438 19.438 0 01-6.2 7.5A19.477 19.477 0 01.942 27.503v-40zM-19.646 8.279V26.816h40v-.007-.007-.008-.008-.008-.008-.009-.009-.01-.009-.01-.01-.01-.011-.01-.012-.012-.012-.012-.012-.012-.013-.014-.013-.014-.014-.014-.014-.015-.015-.015-.016-.016-.016-.016-.016-.017-.017-.018-.017-.018-.018-.018-.019-.019-.019-.019-.02-.02-.02-.02-.02-.02-.022-.021-.021-.022-.022-.022-.023-.022-.023-.023-.023-.024-.023-.024-.024-.025-.024-.025-.025-.026-.025-.026-.026-.026-.026-.027-.026-.027-.028-.027-.028-.027-.028-.029-.028-.029-.028-.03-.028-.03-.03-.03-.03-.03-.03-.03-.031-.03-.032-.031-.032-.031-.032-.032-.033-.032-.032-.033-.033-.033-.033-.034-.034-.033-.034-.034-.035-.034-.035-.034-.035-.035-.036-.035-.036-.036-.035-.037-.036-.036-.037-.036-.037-.037-.037-.038-.037-.038-.037-.038-.038-.038-.039-.038-.039-.038-.04-.038-.04-.039-.04-.039-.04-.04-.039-.04-.04-.04-.04-.041-.041-.04-.042-.04-.042-.041-.042-.041-.042-.041-.042-.042-.042-.042-.043-.042-.043-.042-.043-.043-.043-.043-.043-.043-.043-.044-.043-.044-.043-.044-.044-.044-.044-.044-.044-.044-.045-.044-.045-.045-.044-.045-.045-.045-.045-.045-.045-.046-.045-.045-.046-.045-.046-.046-.045-.046-.046-.046-.046-.046-.046-.046-.046-.047-.046-.047-.046-.047-.046-.047-.046-.047-.047-.047-.047-.047-.047-.046-.047-.048-.047-.047-.047-.047-.047-.048-.047-.047-.048-.047-.048-.047-.048-.047-.048-.047-.048-.048-.047-.048-.048-.047-.048-.048-.048-.047-.048-.048-.048-.048-.047-.048-.048-.048-.048-.048-.047-.048-.048-.048-.048-.048-.048-.047-.048-.048-.048-.048-.048-.047-.048-.048-.048-.047-.048-.048-.048-.047-.048-.047-.048-.048-.047-.048-.047-.048-.047-.047-.048-.047-.048-.047-.047-.047-.048-.047-.047-.047-.047-.047-.047-.047-.046-.047-.047-.047-.046-.047-.046-.047-.046-.047-.046-.046-.047-.046-.046-.046-.046-.046-.046-.046-.045-.046-.045-.046-.046-.045-.045-.045-.046-.045-.045-.045-.044-.045-.045-.044-.045-.044-.045-.044-.044-.044-.044-.044-.044-.044-.043-.044-.044-.043-.043-.043-.043-.043-.043-.043-.043-.042-.042-.043-.042-.042-.042-.042-.042-.042-.041-.042-.041-.041-.041-.041-.041-.04-.042-.04-.04-.04-.04-.04-.04-.04-.04-.04-.039-.039-.04-.038-.039-.039-.038-.038-.039-.038-.038-.037-.038-.038-.037-.037-.037-.037-.037-.037-.036-.037-.036-.036-.036-.035-.036-.035-.035-.036-.034-.035-.035-.034-.034-.034-.034-.034-.034-.033-.033-.033-.033-.033-.032-.032-.033-.032-.031-.032-.031V9.6v-.03-.031-.031-.03-.03-.03-.03-.03-.03-.03-.028-.03-.028-.029-.028-.028V9.1v-.028-.027-.027-.028-.026-.027-.027-.026-.026-.026-.025-.026-.025-.025-.025-.024-.024-.025-.023-.024-.023-.024-.023-.022-.023-.022-.022-.022-.022-.02-.022-.02-.022-.02h-40zm0 18.537c0 7.063 2.92 13.705 8.522 18.514l26.052-30.354c1.294 1.111 2.854 2.871 3.993 5.373a15.716 15.716 0 011.433 6.467h-40zm8.523 18.514A23.586 23.586 0 00-.643 50.5a23.616 23.616 0 005.087.51 21.335 21.335 0 00.991-.034l.063-.004.03-.002h.016c.008-.001.016-.002-1.267-19.96C2.994 11.05 3 11.05 3.009 11.05l.015-.002.03-.001a429.613 429.613 0 01.185-.01 19.735 19.735 0 01.755-.025c.342-.004.702.002 1.077.021.737.037 1.607.13 2.571.334 1.88.398 4.642 1.34 7.285 3.609l-26.05 30.354zm15.4-14.32v20H7.372l6.875-.001c5.007 0 10.202 0 10.668-.002l-.113-40H23.72l-2.443.001-7.033.001H4.278v20zm20.638 19.997c7.104-.02 13.8-3.336 18.348-8.902L12.286 16.799c2.687-3.29 7.129-5.777 12.516-5.792l.113 40zm18.354-8.91c3.245-3.977 4.434-8.096 4.913-10.529a24.742 24.742 0 00.464-4.58 21.801 21.801 0 00-.015-.934c0-.006 0-.013-19.985.762-19.985.774-19.986.767-19.986.761v-.013l-.001-.025a18.379 18.379 0 01.014-1.619c.033-.576.105-1.28.262-2.075.275-1.4 1.028-4.201 3.344-7.039l30.99 25.291z" fill="none" mask="url(#a)"/>
    </g>
    <defs>
      <clipPath id="clip0">
        <path fill="#fff" d="M0 0h29v31H0z"/>
      </clipPath>
    </defs>
  </symbol>
  <symbol id="eat">
    <path fill-rule="evenodd" clip-rule="evenodd" d="M18.617.076a1 1 0 011.09.217c.909.908 2.097 2.878 3.059 5.918C23.737 9.28 24.5 13.508 24.5 19a1 1 0 01-1 1H20v9a1 1 0 11-2 0V1a1 1 0 01.617-.924zM20 18h2.491c-.086-4.816-.786-8.512-1.632-11.186-.278-.88-.57-1.643-.859-2.295V18zM6 0a1 1 0 011 1v28a1 1 0 11-2 0V1a1 1 0 011-1z" fill="#fff"/>
    <path fill-rule="evenodd" clip-rule="evenodd" d="M1.5 0a1 1 0 011 1v5.5c0 .557.192 1.315.7 1.917C3.68 8.983 4.515 9.5 6 9.5a1 1 0 110 2c-2.015 0-3.43-.733-4.326-1.792A5.068 5.068 0 01.5 6.5V1a1 1 0 011-1z" fill="#fff"/>
    <path fill-rule="evenodd" clip-rule="evenodd" d="M10.5 0a1 1 0 00-1 1v5.5a3.07 3.07 0 01-.7 1.917C8.32 8.983 7.484 9.5 6 9.5a1 1 0 000 2c2.014 0 3.43-.733 4.326-1.792A5.068 5.068 0 0011.5 6.5V1a1 1 0 00-1-1z" fill="#fff"/>
  </symbol>
  <symbol id="alarm">
    <ellipse cx="21.204"
      cy="11.33"
      rx="1.087"
      ry="1.085"
      fill="#fff"/>
    <ellipse cx="10.331"
      cy="11.33"
      rx="1.087"
      ry="1.085"
      fill="#fff"/>
    <ellipse cx="10.331"
      cy="24.351"
      rx="1.087"
      ry="1.085"
      fill="#fff"/>
    <ellipse cx="15.768"
      cy="26.521"
      rx="1.087"
      ry="1.085"
      fill="#fff"/>
    <ellipse cx="7.069"
      cy="17.775"
      rx="1.087"
      ry="1.085"
      fill="#fff"/>
    <ellipse cx="24.466"
      cy="17.775"
      rx="1.087"
      ry="1.085"
      fill="#fff"/>
    <ellipse cx="21.204"
      cy="24.351"
      rx="1.087"
      ry="1.085"
      fill="#fff"/>
    <mask id="a" fill="#fff">
      <path fill-rule="evenodd" clip-rule="evenodd" d="M20.922 29.058a1.058 1.058 0 011.216.196l1.826 1.875a.682.682 0 00.977-.95l-1.357-1.394c-.426-.438-.361-1.15.098-1.552C26.324 24.92 28 21.47 28 17.614 28 10.648 22.523 5 15.768 5 9.012 5 3.536 10.648 3.536 17.614c0 3.815 1.641 7.234 4.236 9.547.452.403.513 1.11.09 1.544l-1.434 1.473a.682.682 0 10.976.951l1.88-1.93a1.058 1.058 0 011.226-.191 11.878 11.878 0 005.258 1.221c1.841 0 3.587-.42 5.154-1.17zm-5.154-.23c6.005 0 10.873-5.02 10.873-11.213S21.773 6.402 15.768 6.402c-6.005 0-10.873 5.02-10.873 11.212 0 6.193 4.868 11.213 10.873 11.213zm-.76-11.53V9.94a.781.781 0 111.563 0v8.183c0 .443-.36.803-.803.803a.76.76 0 01-.76-.76V17.298z"/>
    </mask>
    <path fill-rule="evenodd" clip-rule="evenodd" d="M20.922 29.058a1.058 1.058 0 011.216.196l1.826 1.875a.682.682 0 00.977-.95l-1.357-1.394c-.426-.438-.361-1.15.098-1.552C26.324 24.92 28 21.47 28 17.614 28 10.648 22.523 5 15.768 5 9.012 5 3.536 10.648 3.536 17.614c0 3.815 1.641 7.234 4.236 9.547.452.403.513 1.11.09 1.544l-1.434 1.473a.682.682 0 10.976.951l1.88-1.93a1.058 1.058 0 011.226-.191 11.878 11.878 0 005.258 1.221c1.841 0 3.587-.42 5.154-1.17zm-5.154-.23c6.005 0 10.873-5.02 10.873-11.213S21.773 6.402 15.768 6.402c-6.005 0-10.873 5.02-10.873 11.212 0 6.193 4.868 11.213 10.873 11.213zm-.76-11.53V9.94a.781.781 0 111.563 0v8.183c0 .443-.36.803-.803.803a.76.76 0 01-.76-.76V17.298z" fill="#fff"/>
    <path d="M9.284 29.199l2.865 2.79-2.865-2.79zm1.226-.191l1.765-3.59-1.765 3.59zm-3.106 2.121L4.54 28.34l2.865 2.79zm-.976-.95l2.865 2.79-2.865-2.79zm17.156-1.394l-2.865 2.79 2.865-2.79zm.098-1.552l-2.635-3.009 2.635 3.01zm-15.91-.072L5.11 30.146l2.662-2.985zm.09 1.544l-2.866-2.79 2.866 2.79zm17.079 1.473l2.866-2.79-2.866 2.79zm-.977.951l2.866-2.79-2.866 2.79zm-1.825-1.875l-2.866 2.79 2.866-2.79zm-1.217-.196l-1.73-3.606 1.73 3.606zm-1.65 2.987L21.1 33.92l5.731-5.582-1.826-1.874-5.731 5.58zm8.535-4.658l-1.357-1.393-5.731 5.582 1.356 1.393 5.732-5.582zm-1.49 2.855C29.807 27.186 32 22.647 32 17.614h-8c0 2.677-1.16 5.04-2.953 6.61l5.27 6.018zM32 17.614C32 8.556 24.848 1 15.768 1v8C20.199 9 24 12.74 24 17.614h8zM15.768 1C6.688 1-.464 8.556-.464 17.614h8c0-4.874 3.8-8.614 8.232-8.614V1zM-.464 17.614c0 4.98 2.147 9.477 5.574 12.532l5.324-5.97c-1.762-1.572-2.898-3.913-2.898-6.561h-8zm5.46 8.3l-1.434 1.473 5.731 5.582 1.434-1.473-5.73-5.581zm5.274 8.006l1.88-1.93-5.732-5.582-1.88 1.93 5.732 5.582zm-1.525-1.323a15.878 15.878 0 007.023 1.632v-8a7.879 7.879 0 01-3.493-.811l-3.53 7.18zm7.023 1.632c2.456 0 4.792-.56 6.884-1.565l-3.46-7.212c-1.041.499-2.198.777-3.424.777v8zm0-1.402c8.33 0 14.873-6.928 14.873-15.212h-8c0 4.1-3.192 7.212-6.873 7.212v8zM30.64 17.615c0-8.285-6.544-15.213-14.873-15.213v8c3.68 0 6.873 3.112 6.873 7.213h8zM15.768 2.402C7.438 2.402.895 9.33.895 17.614h8c0-4.1 3.192-7.212 6.873-7.212v-8zM.895 17.614c0 8.285 6.544 15.213 14.873 15.213v-8c-3.68 0-6.873-3.112-6.873-7.213h-8zm11.676-.316v.543h8v-.543h-8zm0 .543v.282h8v-.282h-8zm6.437.325v-.325h-8v.325h8zm0-.325v-.543h-8v.543h8zm0-.543V13.5h-8v3.798h8zm0-3.798V9.94h-8v3.56h8zm-6.437-3.56v3.56h8V9.94h-8zm0 3.56v3.798h8V13.5h-8zm3.219-8.34a4.781 4.781 0 00-4.782 4.78h8a3.219 3.219 0 01-3.218 3.22v-8zm-3.22 12.963a3.197 3.197 0 013.198-3.197v8a4.803 4.803 0 004.803-4.803h-8zm-.42 13.867a2.943 2.943 0 01-3.405.607l3.53-7.179c-1.826-.898-4.227-.683-5.857.99l5.731 5.582zm-8.588 1.93a4.682 4.682 0 006.708 0l-5.731-5.582a3.318 3.318 0 014.754 0L3.562 33.92zm0-6.533a4.682 4.682 0 000 6.533l5.731-5.582a3.318 3.318 0 010 4.63l-5.731-5.58zm22.888-1.393c1.343 1.38.944 3.305-.133 4.248l-5.27-6.018c-1.995 1.748-2.523 5.098-.328 7.352l5.731-5.582zM15.79 13.16a3.219 3.219 0 01-3.22-3.22h8c0-2.64-2.14-4.78-4.78-4.78v8zM5.11 30.146c-1.064-.948-1.447-2.862-.114-4.231l5.731 5.581c2.18-2.238 1.675-5.565-.293-7.32l-5.324 5.97zm22.697 3.774a4.682 4.682 0 000-6.533l-5.732 5.582a3.318 3.318 0 010-4.63l5.732 5.58zm-6.708 0a4.682 4.682 0 006.708 0l-5.732-5.582a3.318 3.318 0 014.755 0L21.1 33.92zm-5.331-18.994a3.24 3.24 0 013.24 3.24h-8a4.76 4.76 0 004.76 4.76v-8zm9.236 11.538c-1.616-1.66-3.992-1.886-5.813-1.012l3.46 7.212a2.943 2.943 0 01-3.378-.62l5.731-5.58z" fill="none" mask="url(#a)"/>
    <path fill="#fff" d="M15 6V2h1.5v4z"/>
    <rect x="8"
      y="2"
      width="15.5"
      height="1.5"
      rx=".75"
      fill="#fff"/>
  </symbol>
  <symbol id="vkontakte">
    <path d="M.085 5.49c0-.855.515-1.316 1.546-1.383l3.97.025a.52.52 0 01.532.377C6.542 5.767 7 6.852 7.505 7.766c.507.913 1.168 1.966 1.985 3.156.071.15.187.226.347.226.124 0 .222-.059.293-.176l.08-.277.026-4.35c0-.302-.075-.503-.226-.604-.151-.1-.43-.176-.84-.226-.319-.05-.479-.235-.479-.553 0-.067.009-.118.027-.151.373-1.09 1.438-1.635 3.197-1.635l1.492-.025c.675 0 1.234.16 1.678.478.444.318.667.821.667 1.509v5.708a.63.63 0 00.346.126c.266 0 .497-.15.693-.452 1.953-2.582 3.01-4.31 3.17-5.181 0-.017.018-.059.054-.126.124-.251.328-.47.612-.654.285-.184.533-.31.746-.377a.555.555 0 01.24-.05h4.13l.266.025c.355 0 .63.16.826.478.071.1.12.21.147.327.026.117.044.234.053.352.009.117.013.184.013.201v.176c-.124.687-.44 1.42-.945 2.2-.507.78-1.15 1.623-1.932 2.528s-1.27 1.5-1.466 1.785c-.16.202-.24.386-.24.554 0 .134.072.285.214.452l3.89 4.627c.213.269.32.562.32.88 0 .386-.16.705-.48.956-.32.252-.702.394-1.146.428l-.453.025h-4.05a.875.875 0 00-.106.012.862.862 0 01-.107.013c-.39 0-.755-.16-1.092-.478-.124-.134-.96-1.123-2.504-2.967a1.384 1.384 0 00-.373-.327c-.072.268-.165.654-.28 1.157-.116.503-.2.863-.253 1.081l-.08.428c-.178.586-.55.938-1.12 1.056l-.372.025h-2.611c-1.475 0-2.944-.637-4.41-1.911-1.465-1.274-2.784-2.922-3.956-4.942C2.323 11.253 1.23 8.902.219 6.22a1.916 1.916 0 01-.134-.73zm16.013 6.513c-.373 0-.71-.096-1.012-.289-.303-.193-.454-.457-.454-.792V5.138c0-.335-.088-.574-.266-.717-.178-.142-.488-.214-.932-.214l-1.52.05c-.763 0-1.34.126-1.73.378.78.352 1.171.922 1.171 1.71v4.426a1.5 1.5 0 01-.532 1.044 1.59 1.59 0 01-1.066.415c-.533 0-.942-.244-1.226-.73-1.385-1.978-2.415-3.856-3.09-5.633l-.24-.654-3.544-.025c-.23 0-.36.013-.386.038-.027.025-.04.096-.04.214 0 .15.018.31.053.477l.56 1.409c1.492 3.638 3.113 6.505 4.862 8.6 1.75 2.096 3.468 3.144 5.156 3.144h2.664c.107 0 .187-.03.24-.088.053-.059.097-.172.133-.34l.053-.251.507-2.213c.142-.302.266-.503.373-.604a.976.976 0 01.692-.276c.427 0 .862.243 1.306.729l2.264 2.716c.142.218.293.327.453.327h4.396c.533 0 .8-.126.8-.378a.465.465 0 00-.08-.25L21.8 13.888c-.302-.352-.453-.729-.453-1.131 0-.403.142-.788.426-1.157.23-.336.68-.893 1.345-1.673a37.63 37.63 0 001.745-2.187c.498-.68.826-1.295.986-1.849l.08-.327a.37.37 0 01-.026-.163.574.574 0 00-.027-.189h-4.183c-.266.1-.48.252-.64.453l-.16.478c-.443 1.157-1.607 2.942-3.49 5.356a1.892 1.892 0 01-1.305.503z" fill="#666"/>
  </symbol>
  <symbol id="instagram">
    <path d="M9.98.078c1.667 0 3.028.02 4.082.059.899.039 1.7.195 2.403.468.677.26 1.263.638 1.758 1.133.494.495.872 1.081 1.133 1.758.273.703.43 1.504.468 2.402.04 1.055.059 2.416.059 4.082 0 1.667-.02 3.028-.059 4.082-.039.899-.195 1.7-.469 2.403a4.985 4.985 0 01-1.132 1.758 4.985 4.985 0 01-1.758 1.133c-.703.273-1.504.43-2.402.468-1.055.04-2.416.059-4.083.059-1.666 0-3.027-.02-4.082-.059-.898-.039-1.699-.195-2.402-.469a4.985 4.985 0 01-1.758-1.132 4.984 4.984 0 01-1.133-1.758c-.273-.703-.43-1.504-.468-2.402-.04-1.055-.059-2.416-.059-4.083 0-1.666.02-3.027.059-4.082C.176 5 .332 4.2.605 3.496a4.984 4.984 0 011.133-1.758A4.984 4.984 0 013.496.605C4.2.332 5 .175 5.898.137 6.953.097 8.314.078 9.98.078zm0 1.29c-1.731 0-3.144.019-4.238.058a6.27 6.27 0 00-1.953.37A3.566 3.566 0 001.797 3.79a6.27 6.27 0 00-.371 1.953 123.51 123.51 0 00-.059 4.238c0 1.732.02 3.145.059 4.239a6.27 6.27 0 00.37 1.953 3.566 3.566 0 001.993 1.992c.599.221 1.25.345 1.953.371a123.7 123.7 0 004.238.059c1.732 0 3.145-.02 4.239-.059a6.274 6.274 0 001.953-.37 3.567 3.567 0 001.992-1.993c.221-.6.345-1.25.371-1.953.04-1.094.059-2.507.059-4.239 0-1.731-.02-3.144-.059-4.238a6.273 6.273 0 00-.37-1.953 3.566 3.566 0 00-1.993-1.992 6.27 6.27 0 00-1.953-.371c-1.094-.04-2.507-.059-4.239-.059zm0 12.577c1.094 0 2.028-.387 2.803-1.162.775-.774 1.162-1.709 1.162-2.803 0-1.093-.387-2.028-1.162-2.802-.774-.775-1.709-1.162-2.803-1.162-1.093 0-2.028.387-2.802 1.162-.775.774-1.162 1.709-1.162 2.802 0 1.094.387 2.028 1.162 2.803.774.775 1.709 1.162 2.802 1.162zm0-9.043c1.407 0 2.605.495 3.594 1.485.99.99 1.485 2.187 1.485 3.593 0 1.407-.495 2.605-1.485 3.594-.99.99-2.187 1.485-3.594 1.485-1.406 0-2.604-.495-3.593-1.485-.99-.99-1.485-2.187-1.485-3.594 0-1.406.495-2.604 1.485-3.593.99-.99 2.187-1.485 3.593-1.485zm6.485-.195c0 .326-.117.602-.352.83-.234.228-.52.342-.86.342a1.13 1.13 0 01-.83-.342 1.13 1.13 0 01-.341-.83c0-.339.114-.625.342-.86.228-.234.504-.35.83-.35.325 0 .609.12.85.36.24.241.36.525.36.85z" fill="#666"/>
  </symbol>
  <symbol id="facebook">
    <path d="M11.5.833H8.75A4.63 4.63 0 005.51 2.15a4.45 4.45 0 00-1.343 3.177v2.697h-2.75v3.595h2.75v7.191h3.666v-7.19h2.75l.917-3.596H7.833V5.327a.89.89 0 01.269-.635.926.926 0 01.648-.263h2.75V.833z"
      stroke="#666"
      stroke-width="1.1"
      stroke-linecap="round"
      stroke-linejoin="round"
      fill="none"/>
  </symbol>
  <symbol id="academy-word">
    <path d="M.281 12V.547h1.516V5.25H7.75V.547h1.516V12H7.75V6.602H1.797V12H.28zm14.43 0V1.898h-3.774V.547h9.079v1.351h-3.79V12h-1.515zm6.82 0V.547h2.282l2.71 8.11c.25.754.433 1.32.547 1.695.13-.417.334-1.03.61-1.836l2.742-7.97h2.039V12H31V2.414L27.672 12h-1.367l-3.313-9.75V12h-1.46zm13.313 0V.547h1.515v10.101H42V12h-7.156zm10.68 0L49.921.547h1.633L56.242 12h-1.726L53.18 8.531h-4.79L47.134 12h-1.61zm3.304-4.703h3.883l-1.195-3.172a31.346 31.346 0 01-.813-2.375 14.587 14.587 0 01-.617 2.188l-1.258 3.359zm13.86 1.664l1.382.18c-.15.953-.539 1.7-1.164 2.242-.62.536-1.383.805-2.289.805-1.135 0-2.05-.37-2.742-1.11-.688-.745-1.031-1.81-1.031-3.195 0-.896.148-1.68.445-2.352.297-.672.747-1.174 1.352-1.508a4.02 4.02 0 011.984-.507c.901 0 1.638.229 2.21.687.574.453.941 1.1 1.102 1.938l-1.367.21c-.13-.557-.362-.976-.695-1.257-.328-.282-.727-.422-1.195-.422-.709 0-1.284.255-1.727.766-.443.505-.664 1.307-.664 2.406 0 1.114.214 1.924.64 2.43.428.505.985.757 1.673.757.552 0 1.013-.169 1.382-.508.37-.338.605-.859.703-1.562zm8 2.016c-.521.442-1.024.755-1.508.937-.48.182-.995.274-1.547.274-.912 0-1.612-.222-2.102-.665-.49-.447-.734-1.018-.734-1.71 0-.407.091-.777.273-1.11.188-.338.43-.61.727-.812a3.47 3.47 0 011.016-.461c.275-.073.692-.144 1.25-.211 1.135-.136 1.97-.297 2.507-.485.006-.192.008-.315.008-.367 0-.573-.133-.976-.398-1.21-.36-.318-.894-.477-1.602-.477-.661 0-1.15.117-1.469.351-.312.23-.544.638-.695 1.227L65.04 6.07c.125-.588.33-1.062.617-1.422.287-.364.7-.643 1.242-.835.542-.198 1.17-.297 1.883-.297.709 0 1.284.083 1.727.25.443.166.768.377.976.632.209.25.355.568.438.954.047.24.07.671.07 1.296v1.875c0 1.308.029 2.136.086 2.485.063.344.182.674.36.992h-1.47a2.981 2.981 0 01-.28-1.023zm-.118-3.141c-.51.208-1.276.385-2.297.531-.578.084-.986.177-1.226.281a1.214 1.214 0 00-.75 1.125c0 .375.14.688.422.938.286.25.703.375 1.25.375.541 0 1.023-.117 1.445-.352.422-.24.732-.565.93-.976.15-.318.226-.787.226-1.406v-.516zM79.563 12v-1.047c-.526.823-1.3 1.235-2.32 1.235-.662 0-1.272-.183-1.829-.547-.552-.365-.982-.873-1.289-1.524-.302-.656-.453-1.409-.453-2.258 0-.828.138-1.578.414-2.25.276-.677.69-1.195 1.242-1.554.552-.36 1.17-.54 1.852-.54.5 0 .945.107 1.336.32.39.21.708.483.953.821V.546h1.398V12h-1.305zm-4.446-4.14c0 1.062.224 1.856.672 2.382.448.526.977.79 1.586.79.615 0 1.135-.25 1.563-.75.432-.506.648-1.274.648-2.305 0-1.136-.219-1.97-.656-2.5-.438-.532-.977-.797-1.618-.797-.624 0-1.148.255-1.57.765-.416.51-.625 1.315-.625 2.414zm13.649 1.468l1.453.18c-.23.849-.654 1.508-1.274 1.976-.62.47-1.411.704-2.375.704-1.213 0-2.177-.373-2.89-1.118-.709-.75-1.063-1.8-1.063-3.148 0-1.396.36-2.48 1.078-3.25.72-.771 1.651-1.156 2.797-1.156 1.11 0 2.016.377 2.719 1.132.703.756 1.055 1.818 1.055 3.188 0 .083-.003.208-.008.375H84.07c.052.911.31 1.61.774 2.094.463.484 1.041.726 1.734.726.516 0 .956-.135 1.32-.406.365-.27.654-.703.868-1.297zm-4.618-2.273h4.633c-.062-.698-.24-1.222-.531-1.57-.448-.542-1.029-.813-1.742-.813-.646 0-1.19.216-1.633.648-.438.433-.68 1.01-.727 1.735zM91.992 12V3.703h1.258v1.164c.26-.406.607-.732 1.04-.976.431-.25.923-.375 1.476-.375.614 0 1.117.127 1.507.382.396.256.675.612.836 1.07.657-.968 1.51-1.452 2.563-1.452.823 0 1.456.229 1.898.687.443.453.664 1.154.664 2.102V12h-1.398V6.773c0-.562-.047-.966-.141-1.21a1.15 1.15 0 00-.492-.602 1.548 1.548 0 00-.844-.227c-.583 0-1.067.196-1.453.586-.385.386-.578 1.006-.578 1.86V12h-1.406V6.61c0-.626-.115-1.094-.344-1.407-.229-.312-.604-.469-1.125-.469-.396 0-.763.105-1.101.313a1.778 1.778 0 00-.727.914c-.151.401-.227.98-.227 1.734V12h-1.406zm13.266 3.195l-.156-1.32c.307.083.575.125.804.125.313 0 .563-.052.75-.156.188-.104.341-.25.461-.438.089-.14.232-.49.43-1.047.026-.078.068-.192.125-.343l-3.149-8.313h1.516l1.727 4.805c.224.61.424 1.25.601 1.922.162-.646.354-1.276.578-1.89l1.774-4.837h1.406l-3.156 8.438c-.339.911-.602 1.539-.789 1.882-.25.464-.537.803-.86 1.016-.323.219-.708.328-1.156.328-.271 0-.573-.057-.906-.172z" fill="#444"/>
  </symbol>
  <symbol id="academy-logo">
    <path d="M13.643.016L13.5 0 0 1.407v24.606L13.5 34 27 26.013V1.407L13.643.016zm11.591 25L13.5 31.956 1.766 25.015V14.93l11.685 6.916.02 1.253-8.017-4.743-.011 1.225 8.046 4.809.02 1.286-8.045-4.758-.01 1.226L13.5 26.95l8.124-4.833V16.91l3.62-2.15-.01 10.256zm0-11.564l-3.22 1.88-1.482.875-7.065-4.187-.011 1.225 6.04 3.573-.053.031-.13.076-.86.492-4.986-2.948-.011 1.225 3.936 2.328-.933.61-.021.012-2.971-1.742-.011 1.225 1.947 1.135-1.988 1.186-11.618-6.872 11.638-6.958 11.8 6.834zm0-1.225L13.44 5.31 1.766 12.22V2.99L13.5 1.764 25.234 2.99v9.237z" fill="#666"/>
  </symbol>
  <symbol id="gift">
    <path d="M64.016 34.713H14.03c-1.754 0-3.182-1.418-3.182-3.16v-9.469c0-1.742 1.428-3.16 3.182-3.16h49.984c1.754 0 3.18 1.418 3.18 3.16v9.47c0 1.741-1.426 3.159-3.18 3.159zM14.03 21.346a.751.751 0 00-.744.738v9.47c0 .406.334.737.744.737h49.984c.41 0 .743-.33.743-.738v-9.469a.75.75 0 00-.743-.738H14.03z" fill="#fff"/>
    <path d="M57.045 67.15H20.999c-3.377 0-6.125-2.73-6.125-6.087V33.502c0-.669.546-1.211 1.219-1.211s1.219.542 1.219 1.21v27.562c0 2.02 1.654 3.664 3.687 3.664h36.046c2.032 0 3.686-1.644 3.686-3.664V33.502c0-.669.546-1.211 1.219-1.211.672 0 1.218.542 1.218 1.21v27.562c0 3.356-2.747 6.086-6.123 6.086z" fill="#fff"/>
    <path d="M39.023 67.15a1.215 1.215 0 01-1.22-1.212V33.502c0-.669.547-1.211 1.22-1.211.672 0 1.218.542 1.218 1.21v32.436c0 .67-.545 1.212-1.218 1.212zM23.811 21.342c-3.814-2.054-5.238-6.809-3.173-10.6 2.064-3.79 6.848-5.205 10.665-3.155 5.814 3.13 8.954 11.86 9.084 12.23l-2.3.804c-.029-.082-2.961-8.221-7.944-10.903-2.635-1.416-5.937-.439-7.36 2.177-1.426 2.617-.444 5.9 2.19 7.317l-1.162 2.13z" fill="#fff"/>
    <path d="M54.231 21.342l-1.16-2.13a5.376 5.376 0 002.622-3.208 5.327 5.327 0 00-.431-4.109 5.382 5.382 0 00-3.226-2.604 5.426 5.426 0 00-4.134.427c-4.982 2.681-7.915 10.82-7.944 10.902l-2.3-.803c.131-.37 3.27-9.1 9.084-12.23a7.859 7.859 0 015.99-.617 7.8 7.8 0 014.674 3.772 7.72 7.72 0 01.623 5.952 7.788 7.788 0 01-3.798 4.648zM61.95 50.932H16.093a1.215 1.215 0 01-1.219-1.211c0-.669.546-1.211 1.219-1.211H61.95c.672 0 1.218.542 1.218 1.21 0 .67-.545 1.212-1.218 1.212z" fill="#fff"/>
  </symbol>
  <symbol id="check">
    <path d="M7 11.718L1.3 5.26951L0.25 6.45739L7 14.0938L18.25 1.36648L17.2 0.09375L7 11.718Z" fill="#68B738"/>
  </symbol>
  <symbol id="phone">
    <g clip-path="url(#clip0)" fill="#000">
      <path d="M17.756 9.4H9.618v1.2h8.138l-2.01 2.1.861.9 2.968-3.1a.772.772 0 000-.9l-2.968-3.1-.861.9 2.01 2zM8.374 19.4v-6.2a.663.663 0 00-.18-.411.611.611 0 00-.395-.189H3.587c.005.317.127.619.342.843.214.224.503.352.806.357H7.13v5H3.587a1.645 1.645 0 01-.669-.095 1.7 1.7 0 01-.581-.357 1.785 1.785 0 01-.405-.565 1.854 1.854 0 01-.164-.683v-14c-.008-.463.158-.91.462-1.247A1.664 1.664 0 013.395 1.3H7.13v5H4.831a1.144 1.144 0 00-.807.357 1.247 1.247 0 00-.342.843h4.213a.611.611 0 00.394-.189.663.663 0 00.18-.411V.6a.864.864 0 00-.251-.402A.808.808 0 007.799 0H3.587A2.762 2.762 0 002.48.19a2.856 2.856 0 00-.953.617 3 3 0 00-.653.952A3.111 3.111 0 00.619 2.9v13.9c-.028.398.023.797.15 1.173.128.376.328.72.589 1.011.26.292.576.523.927.68.35.158.728.238 1.11.236H7.8a.46.46 0 00.402-.106.497.497 0 00.173-.394z"/>
    </g>
    <defs>
      <clipPath id="clip0">
        <path fill="#fff" transform="translate(.619)" d="M0 0h19.148v20H0z"/>
      </clipPath>
    </defs>
  </symbol>
  <symbol id="email">
    <path stroke="#222" stroke-width="1.3" d="M1.19 6v8M18.19 6v8M.54 13.35h18M.54 1.35h18M17.89 3.182L9.54 9.677 1.19 3.182V1.65h16.7v1.532z" fill="none"/>
  </symbol>
</svg>
