<svg display="none" xmlns="http://www.w3.org/2000/svg">
<!--logo-mob-->
  <symbol id="logo-mob">
    <g>
      <path d="M6.07 20.72v-2.26a143.265 143.265 0 0120.17-1.33c0 .6 0 1.21-.06 1.82a25.518 25.518 0 016-1.82A16.67 16.67 0 00.19 20.39l5.88.33zM27.24 24.23c-1.16 1.28-1.39 1.2-1.39 3.45v9.18A16.64 16.64 0 0033.32 23a17.302 17.302 0 00-.32-3.1 33.109 33.109 0 00-5.76 4.33zM6.36 25.72s-3.79-1.44-5.19-1.83A8.541 8.541 0 000 23.61a16.65 16.65 0 008.68 14L6.36 25.72z" fill="#FDC305"/>
      <path d="M26.29 17.12A89.799 89.799 0 0024.89.65S24.75-.64 24 .41a14.22 14.22 0 00-1.2 3.94 70.34 70.34 0 00-12.77.34C9.24 2 7.85.75 7.18 1c-.67.25-.72 3.31-.72 3.31l-.33 14.1a143.211 143.211 0 0120.16-1.29z" fill="#F06351"/>
      <path d="M12.41 14c0-.09 1 .68 1.41.92.41.24.61.42.61.59 0 .17-.27.34-.63.34s-.91-.12-1-.27h1.23A8.34 8.34 0 0112.41 14zM19.89 14.11l-1.09 1.33c0 .06-.17.35.18.3a7.351 7.351 0 001.22-.29c.11 0 .07-.19-.11-.17-.18.02-.69.05-1 .11l.84-1.26s.07-.13-.04-.02zM16.75 20.2a2.3 2.3 0 001.09-1c.28-.65 0-.91-.44-1a2.43 2.43 0 00-1.74.34c-.39.36-.34.72-.05 1a5.34 5.34 0 001.14.66z" fill="#000"/>
      <path d="M16.35 21.45a1.92 1.92 0 01-.46.6 1.73 1.73 0 01-1 .38 2.15 2.15 0 01-1.47-.43 2.3 2.3 0 01-.53-.44c-.1-.11-.223-.2-.36-.26 0 0 .75 4.1 2.57 4.75 1.82.65 2.14-.75 2.2-1.13a5.61 5.61 0 00-.82-3.23c-.02-.31-.03-.11-.13-.24z" fill="#F06351"/>
      <path d="M14.71 22.59a3.44 3.44 0 01-2.361-1.466.14.14 0 01.031-.154.14.14 0 01.2 0 3.26 3.26 0 002.11 1.3 2.09 2.09 0 001.63-1l.14-.19.1.21s.37.76 1 .8c.63.04 1.05-.41 1.61-1.28a.14.14 0 01.2 0 .15.15 0 01.05.2c-.64 1-1.27 1.44-1.88 1.4a1.549 1.549 0 01-1.12-.76 2.26 2.26 0 01-1.71.94z" fill="#000"/>
      <path d="M26.24 18.92a58.634 58.634 0 00-5.07 5.19A31.633 31.633 0 0115.88 29c-.22-.53-1.62-1.51-1.62-1.51s-3.13-2.14-5.18-3.82a34.139 34.139 0 01-3.13-3l-2-.11a22.57 22.57 0 0012 8.8c.86-.14 3.27-1.86 5.07-3.26a58.13 58.13 0 005.94-5.89 6.15 6.15 0 001.14-2c-1.1.39-1.86.71-1.86.71z" fill="#F06351"/>
    </g>
    <defs>
      <clipPath id="clip0">
        <path fill="#fff" d="M0 0h33.32v37.61H0z"/>
      </clipPath>
    </defs>
  </symbol>
  <!--logo-tabl-->
  <symbol id="logo-tabl">
    <g>
      <path d="M51.6 20.9A22.2 22.2 0 0034 7.4a21.9 21.9 0 00-20.3 8.4A22.4 22.4 0 0028 51.4l-1.5-6c1.4 1 2.7 1.7 4.1 2.3l.3 4c1.5 0 3-.1 4.6-.4v-.7c.2-1.6 1-4.5 1-6.4 1-1 1.9-2 2.6-3.3v.4c-.6 3.7-1.6 7.7-2.2 8.8l-.7 1a22 22 0 0017-20.8c.2-3.2-.4-6.5-1.6-9.4zM50.3 24c-.4.4-1.1.7-1.3-.5l-.1-1.9s-1.7-3-2.3-3c-.6 0-5 3-6.2 4.4-1 1-1.2 1-1.2 3 0 1.5.2 7 0 11.4l-7 1.8c-2.2.7-4.4 1.2-6.7 1.5l-.8-5h-.1l-2.3-11.5-4.5-1.6a3.2 3.2 0 00-3.4.6 4.4 4.4 0 00-1.5 3.3l.4 1.3c0 .4-1 .4-1.7.4s-.8-1.3-.2-2.8a19.9 19.9 0 013.3-5.7s.1-.3 1-.2l6.4.4v-2a122 122 0 0117.4-1.2v1.6c2.2-1 4.6-1.6 7-1.7a.8.8 0 01.7.3l2.3 3 1.6 2.5c-.2.6-.4 1.2-.8 1.6z" fill="#FDC305"/>
      <path d="M48.6 18.8l.9 1.2 1.6 2.6c-.2.5-.4 1-.8 1.5-.3.4-1.1.6-1.3-.5l-.1-1.9s-1.7-3-2.3-3c-.6 0-5 3-6.2 4.4-1 1-1.2 1-1.2 3l.1 9.7c1.6.2 3.8.6 4.5 1.7 0 0-.2-6.3 6.8-3 0 0 .2-8.5 9.8-6.3-3.2-4-7.2-7-11.8-9.4zM39.6 16.8c0-4.8-.4-9.6-1.2-14.3 0 0-.2-1.2-.8-.3-.5 1.1-.9 2.3-1 3.5-3.7-.2-7.4-.1-11 .3-.8-2.4-2-3.5-2.6-3.2-.5.3-.6 2.9-.6 2.9L22.1 18a122 122 0 0117.5-1.2z" fill="#F06351"/>
      <path d="M39 41c.2-1 .2-2.2.3-3.6l-7 1.9c-2.3.7-4.5 1.2-6.8 1.5l1 4.4v.3c1.4.8 2.7 1.6 4.1 2.2 2.1-1 4.1-2.2 6-3.6 1-.9 1.8-2 2.5-3.2z" fill="#E55645"/>
      <path d="M27.6 14l1.2.9.5.5c0 .2-.2.3-.5.3l-.9-.2c0-.1.5 0 .8 0h.3a7 7 0 01-1.4-1.4zM34 14.2l-1 1.2s0 .2.3.2a7 7 0 001-.2l-.1-.2-.9.1.8-1.1s0-.1 0 0zM31.3 19.5a2 2 0 001-.9c.2-.5 0-.8-.4-.8-.5-.1-1 0-1.5.3-.4.3-.3.6 0 .8.3.3.6.4 1 .6z" fill="#000"/>
      <path d="M31 20.6c0 .2-.2.4-.4.5-.2.2-.5.3-.8.3-.5 0-1 0-1.4-.3l-.4-.4-.3-.2s.6 3.5 2.2 4.1c1.5.6 1.8-.7 1.9-1 0-1-.2-2-.7-2.8v-.2z" fill="#F06351"/>
      <path d="M29.5 21.6a3 3 0 01-2-1.3.1.1 0 010-.1.1.1 0 01.1 0 2.8 2.8 0 002 1.1 1.8 1.8 0 001.3-.9l.1-.1.1.2s.4.6.9.7c.5 0 1-.4 1.4-1.2h.2a.1.1 0 010 .2c-.6.8-1.1 1.2-1.6 1.2a1.3 1.3 0 01-1-.6 2 2 0 01-1.5.8z" fill="#000"/>
      <path d="M31.2 33.3c1.8 0 3.3-1.5 3.3-3.3 0-1.8-1.5-3.2-3.3-3.2A3.2 3.2 0 0028 30c0 1.8 1.5 3.3 3.2 3.3z" fill="#FDC305"/>
      <path d="M35.5 27.4l-2.7 1.1 1-4.9-6.4 8.5L30 31l-1 4.9 6.5-8.5zm-6.3 3.3l3.5-4.7-.7 3.5 1.8-.7-3.7 4.7.7-3.5-1.6.7zM28 29.4c.5 0 1-.4 1-1 0-.5-.5-1-1-1a1 1 0 00-1 1c0 .6.4 1 1 1zM33.6 33c.3 0 .6-.4.6-.7 0-.4-.3-.7-.6-.7-.4 0-.7.3-.7.7 0 .3.3.6.7.6zM34.4 31c.2 0 .3 0 .3-.2s-.1-.3-.3-.3c-.2 0-.3 0-.3.3 0 .1.1.3.3.3z" fill="#111"/>
      <path d="M39.5 18.4l-4.4 4.5c-1.3 1.6-2.9 3-4.5 4.3-.2-.5-1.4-1.3-1.4-1.3l-4.5-3.4c-1-.8-1.9-1.7-2.7-2.6h-1.7c2.4 3.6 6 6.3 10.3 7.6.7-.1 2.8-1.6 4.4-2.9 1.8-1.5 3.5-3.3 5.1-5 .5-.6.8-1.2 1-1.8l-1.6.6zM22.3 24.3l-4.5-1.6a3.2 3.2 0 00-3.4.6 4.4 4.4 0 00-1.5 3.3l.4 1.3c0 .4-1 .4-1.7.4s-.8-1.3-.2-2.8c.4-1 .9-2.2 1.5-3.2A172 172 0 000 30.5c2.4-.2 4.7-.1 7 .2 4.6.4 4.4 4 4.4 4a33 33 0 014.8-1c1.8 0 2 2 2 2l.4 3.3c.7-.8 1.5-1.5 2.3-2 1-1 2.4-1.4 3.8-1.2l-2.4-11.5z" fill="#F06351"/>
      <path d="M73.8 36.5c-.9-1.3-1.3-3-1.2-4.5v-6.5c-.1-1.6.3-3.2 1.2-4.6.8-1 2.1-1.5 4-1.5 2 0 3.3.4 4 1.3a5.9 5.9 0 011.1 4v1.5h-3.5v-1.7l-.1-1.3c0-.3-.2-.6-.5-.8a1.3 1.3 0 00-1-.3 1.2 1.2 0 00-1.2.6c-.3.6-.4 1.3-.3 2v8.2c0 .6 0 1.3.3 1.9a1.3 1.3 0 001.3.6 1.2 1.2 0 001.2-.6c.2-.6.3-1.3.2-2v-1.6H83v1.5c.1 1.4-.3 2.8-1 4-.8 1-2.1 1.4-4 1.4s-3.3-.5-4.1-1.6zM87.8 19.6h4L95.4 38H92l-.6-4h-2.8l-.7 4h-3.5l3.5-18.3zm3.1 12l-1-7.4-1.1 7.3h2.1zM98 22.4h-2.8v-2.8h9.2v2.8h-2.8v15.4H98V22.4z" fill="#111"/>
      <path d="M111.7 19.6h7v2h-4.5v6h3.6v1.7h-3.6V36h4.5v1.8h-7V19.6zM120.7 19.6h1.8l5.1 12.1v-12h2.1v18.2h-1.6L123 25.4v12.4h-2l-.2-18.2zM132.5 19.6h7v2H135v6h3.7v1.7H135V36h4.5v1.8h-7V19.6zM141.6 19.6h3.6a6 6 0 014 1.2c.9.7 1.3 2 1.3 3.7 0 2.3-.7 3.7-2.2 4.2l2.6 9.1h-2.5l-2.3-8.5h-2v8.5h-2.5V19.6zm3.4 7.8c.9.1 1.7-.1 2.3-.6a3.1 3.1 0 00.8-2.4c0-.6-.1-1.2-.3-1.7a1.6 1.6 0 00-.9-1 4 4 0 00-1.7-.3H144v6h1zM154 36.5c-1-1.4-1.3-3-1.2-4.7v-6c0-1.2.1-2.4.4-3.5.3-.9.8-1.6 1.5-2.1a5 5 0 013-.7 4.5 4.5 0 013.5 1.2 6.1 6.1 0 011.1 4v.8H160v-.6c0-.7 0-1.4-.2-2 0-.5-.3-.8-.6-1.1-.5-.3-1-.4-1.5-.4-.6 0-1.1.2-1.6.5-.3.4-.6.8-.6 1.3a13 13 0 00-.2 2.2V32c0 1 .1 2.1.5 3a2.4 2.4 0 003.9 0c.4-1 .6-2.1.5-3.2v-1.3h-2.3v-1.8h4.6v9h-1.6l-.2-2a3.2 3.2 0 01-3.2 2.3 4 4 0 01-3.6-1.6zM167.7 31.4l-3.9-11.8h2.4l2.7 8.8 2.7-8.8h2.4l-3.9 11.8v6.4h-2.4v-6.4z" fill="#444"/>
    </g>
    <defs>
      <clipPath id="clip0">
        <path fill="#fff" d="M0 0h174v51.7H0z"/>
      </clipPath>
    </defs>
  </symbol>
  <!--logo-desk-->
  <symbol id="logo-desk">
    <g>
      <path d="M59.9 23.8A25.4 25.4 0 0039.6 8.4 25.8 25.8 0 0016 18a25.3 25.3 0 0016.5 40.7c-.6-2-1.2-4.3-1.7-6.8 1.5 1 3.1 1.8 4.8 2.6l.3 4.5c1.7 0 3.5-.1 5.3-.5v-.7c.3-1.9 1-5.2 1.2-7.4 1.2-1 2.2-2.3 3-3.7l-.1.5c-.6 4.2-1.7 8.7-2.4 10l-.8 1.1a25.7 25.7 0 0019.7-23.7c.2-3.7-.5-7.4-2-10.8zm-1.5 3.8c-.4.4-1.3.7-1.5-.6a34 34 0 01-.2-2.2s-2-3.4-2.6-3.4c-.7 0-5.9 3.4-7.2 5-1.2 1.2-1.4 1.1-1.4 3.4 0 1.7.2 8 0 13l-8 2.1c-2.6.7-5.2 1.3-7.9 1.7l-1-5.8h-.1l-2.6-13s-3.8-1.5-5.2-1.8a3.8 3.8 0 00-4 .6 5 5 0 00-1.7 3.8l.5 1.4c0 .5-1.2.5-2 .5s-1-1.5-.3-3.1a22.5 22.5 0 013.9-6.6s.1-.4 1.2-.3l7.3.5v-2.3A144 144 0 0146 19.2V21c2.6-1.2 5.3-1.8 8.1-2a1 1 0 01.8.4l2.7 3.4 1.8 3-.9 1.8z" fill="#FDC305"/>
      <path d="M56.5 21.5l1 1.3 1.8 3c-.2.6-.5 1.2-.9 1.7-.4.4-1.3.7-1.5-.6l-.2-2.1s-2-3.4-2.6-3.4c-.7 0-5.9 3.4-7.2 5-1.2 1.2-1.4 1.1-1.4 3.4 0 1.4.2 6.6.1 11.1 1.8.2 4.5.7 5.3 1.9 0 0-.3-7.2 7.8-3.4 0 0 .3-9.7 11.5-7.3-3.8-4.4-8.5-8-13.7-10.6zM46 19.2c0-5.5-.5-11-1.5-16.4 0 0-.1-1.3-.8-.2a14 14 0 00-1.2 4c-4.3-.3-8.6-.2-12.9.3-.8-2.8-2.2-4-2.8-3.7-.7.4-.8 3.3-.8 3.3l-.3 14a144 144 0 0120.2-1.3z" fill="#F06351"/>
      <path d="M45.4 46.7l.2-4-8.2 2.2c-2.5.7-5.1 1.3-7.8 1.7l1.2 5v.3c1.5 1 3.1 1.8 4.8 2.5 2.4-1.1 4.7-2.5 6.9-4 1.1-1 2-2.3 2.9-3.7z" fill="#E55645"/>
      <path d="M32 16l1.4 1c.4.2.6.4.6.6 0 .2-.2.3-.6.3-.4 0-1 0-1-.2s.6 0 1 0h.2A8 8 0 0132 16zM39.5 16.2l-1 1.3c-.2 0-.3.4.1.3l1.2-.3c.1 0 0-.2-.1-.1h-1l.9-1.2s0-.1-.1 0zM36.4 22.3c.4-.2.8-.6 1-1 .3-.7 0-1-.4-1-.6-.1-1.2 0-1.7.3-.4.4-.4.7 0 1l1 .7z" fill="#000"/>
      <path d="M36 23.5a2 2 0 01-.5.6c-.2.2-.6.4-1 .4-.5 0-1-.1-1.5-.5a2 2 0 01-.5-.4 1 1 0 00-.4-.3s.8 4.1 2.6 4.8c1.8.6 2.1-.8 2.2-1.1 0-1.2-.2-2.3-.8-3.3 0-.3 0 0-.1-.2z" fill="#F06351"/>
      <path d="M34.3 24.6a3.5 3.5 0 01-2.3-1.4.1.1 0 010-.2.1.1 0 01.1 0 3.2 3.2 0 002.2 1.3 2.1 2.1 0 001.6-1l.1-.2.1.3s.4.7 1 .8c.7 0 1.1-.5 1.7-1.3a.1.1 0 01.2 0 .1.1 0 010 .1c-.7 1-1.3 1.5-1.9 1.4a1.6 1.6 0 01-1.1-.7 2.3 2.3 0 01-1.7 1z" fill="#000"/>
      <path d="M36.3 38c2 0 3.7-1.7 3.7-3.7s-1.7-3.7-3.7-3.7c-2.1 0-3.8 1.6-3.8 3.7 0 2 1.7 3.7 3.8 3.7z" fill="#FDC305"/>
      <path d="M41.2 31.2l-3.1 1.3 1.2-5.5-7.5 9.6 3-1.3-1 5.6 7.4-9.7zM33.8 35l4.2-5.3-.8 4 2-.9-4.2 5.4.8-4-2 .8zM32.4 33.6c.7 0 1.2-.5 1.2-1.1 0-.6-.5-1.1-1.2-1.1-.6 0-1 .5-1 1 0 .7.4 1.2 1 1.2zM39 37.6c.4 0 .8-.3.8-.8 0-.4-.4-.8-.8-.8-.5 0-.8.4-.8.8 0 .5.3.8.8.8zM40 35.5c.1 0 .3-.2.3-.4s-.2-.3-.4-.3-.3.1-.3.3c0 .2.1.4.3.4z" fill="#111"/>
      <path d="M45.9 21a57.2 57.2 0 00-5.1 5.2 31.8 31.8 0 01-5.3 4.8c-.2-.5-1.6-1.5-1.6-1.5s-3.2-2.1-5.2-3.8l-3.2-3h-2c2.9 4.1 7.1 7.2 12 8.7.9-.2 3.3-1.9 5.1-3.3 2.1-1.8 4.1-3.7 6-5.8.5-.6.9-1.3 1.1-2L46 21z" fill="#F06351"/>
      <path d="M65.2 3.5l-8.4 9.3-1.3-2L63.7 0l1.5 3.5zM62.7 17.1l5.5-4-.8-3.8-5.4 4.8.7 3zM60 49l6 3.1 3-2.3-6.6-2.7-2.5 1.9zM2 6l3-3.4 9.3 9-1.2 2.2L1.9 5.9zM7.4 16.1l-4.7-3-2.4 3.8 5.1 2.4 2-3.2zM14 52.1l-4.6 3.3 2.8 3.6 4-4-2.3-2.9z" fill="#FDC305"/>
      <path d="M26 27.8S22 26.3 20.6 26a3.8 3.8 0 00-4 .6 5 5 0 00-1.7 3.8l.5 1.4c0 .5-1.2.5-2 .5s-1-1.5-.3-3.1c.5-1.3 1-2.6 1.8-3.7-5.4 2.8-15 9.3-15 9.3 2.7-.2 5.5-.1 8.2.2 5.2.5 5 4.6 5 4.6a39 39 0 015.6-1c2.1-.2 2.3 2 2.3 2l.5 3.9c.8-.9 1.7-1.7 2.7-2.4a6 6 0 014.4-1.3l-2.8-13z" fill="#F06351"/>
      <path d="M85.7 41.7a8.2 8.2 0 01-1.4-5.2v-7.4c-.2-1.9.3-3.7 1.3-5.2 1-1.2 2.6-1.8 4.8-1.8 2.2 0 3.8.5 4.5 1.6 1 1.2 1.5 2.8 1.4 4.4V30H92v-2l-.1-1.4c0-.4-.2-.7-.5-1a1.6 1.6 0 00-1.1-.3 1.5 1.5 0 00-1.5.7c-.3.7-.4 1.5-.4 2.2v9.4c0 .8.1 1.5.4 2.2a1.5 1.5 0 001.5.8 1.4 1.4 0 001.4-.8c.2-.7.3-1.4.3-2.2v-2h4.1v1.8c.2 1.6-.3 3.2-1.2 4.5-.9 1.1-2.4 1.7-4.6 1.7-2.1 0-3.8-.6-4.7-1.8zM102 22.4h4.7l4 20.8h-4l-.7-4.6h-3.3l-.8 4.6h-4l4-20.8zm3.6 13.6l-1.3-8.4-1.2 8.4h2.5zM113.7 25.5h-3.2v-3.1h10.7v3.1H118v17.7h-4.3V25.5z" fill="#111"/>
      <path d="M129.6 22.4h8.1v2.2h-5.2v6.8h4.3v2h-4.3v7.7h5.3v2.1h-8.2V22.4zM140.2 22.4h2l6 13.8V22.4h2.4v20.8h-1.9l-6-14.2v14.2h-2.5V22.4zM153.8 22.4h8.1v2.2h-5.2v6.8h4.3v2h-4.2v7.7h5.2v2.1h-8.2V22.4zM164.4 22.4h4.2a7 7 0 014.6 1.3c1 .9 1.5 2.3 1.5 4.2 0 2.7-.8 4.3-2.6 4.9l3 10.4h-2.8l-2.7-9.8h-2.3v9.8h-3V22.4zm4 9c1 0 1.9-.3 2.7-.8a3.5 3.5 0 00.8-2.7c0-.7-.1-1.4-.3-2a1.9 1.9 0 00-1-1c-.7-.3-1.4-.5-2-.4h-1.4v6.9h1.2zM178.7 41.7a9.1 9.1 0 01-1.3-5.3v-7c0-1.3.1-2.7.5-4 .3-1 1-1.8 1.7-2.3a6 6 0 013.4-.9 5.3 5.3 0 014.2 1.5c1 1.3 1.4 3 1.3 4.6v.8h-2.8v-.7c0-.8 0-1.5-.2-2.3 0-.5-.3-1-.7-1.2a3 3 0 00-1.7-.4c-.7 0-1.3.1-1.9.5-.4.4-.6 1-.7 1.5l-.2 2.5v7.7c0 1.2.1 2.4.6 3.4a2.8 2.8 0 003.5.8c.4-.2.7-.5 1-.9a8 8 0 00.6-3.6V35h-2.7v-2.1h5.3v10.3h-1.8l-.3-2.4a3.7 3.7 0 01-3.7 2.7 4.7 4.7 0 01-4.1-1.8zM194.7 35.9l-4.5-13.5h2.7l3.2 10 3.2-10h2.7l-4.5 13.5v7.3h-2.8v-7.3z" fill="#444"/>
    </g>
    <defs>
      <clipPath id="clip0">
        <path fill="#fff" d="M0 0h202v59H0z"/>
      </clipPath>
    </defs>
  </symbol>
  <!--logo-word-->
  <symbol id="logo-word">
    <g>
      <path d="M1.264 16.538A6.865 6.865 0 010 12.231V5.846a6.95 6.95 0 011.185-4.384C2.055.462 3.398 0 5.374 0s3.24.462 4.03 1.308a5.422 5.422 0 011.186 3.769v1.538H6.718V4.846a3.693 3.693 0 00-.238-1.538 1.12 1.12 0 00-.456-.473 1.163 1.163 0 00-.65-.143c-.553 0-.948.154-1.106.539a4.846 4.846 0 00-.237 1.692v8.23a3.111 3.111 0 00.316 1.616c.158.385.553.539 1.106.539s.87-.154 1.027-.539c.18-.52.26-1.067.238-1.615v-1.846h3.872v1.538a5.775 5.775 0 01-1.185 3.846c-.79.923-2.134 1.385-4.031 1.385-1.897-.077-3.32-.539-4.11-1.539zM15.253.23h4.504l3.32 17.54H19.44l-.632-3.693h-2.608l-.632 3.692h-3.715L15.253.231zm3.24 11.54l-.948-6.847-.949 6.846h1.897zM25.843 3.154h-2.687V.23h9.404v2.846h-2.687v14.692h-4.03V3.154zM39.752.23h6.955v1.847h-4.505v5.77h3.635v1.768h-3.635v6.462h4.505v1.77h-7.034V.23h.079zM48.761.23H50.5l5.137 11.616V.231h2.055v17.538h-1.58l-5.217-12v12h-2.134V.231zM60.063.23h6.954v1.847h-4.504v5.77h3.635v1.768h-3.635v6.462h4.504v1.77h-6.954V.23zM69.072.23h3.635a6.451 6.451 0 014.03 1.078c.87.692 1.265 1.923 1.265 3.538 0 2.23-.71 3.616-2.212 4.077l2.528 8.77h-2.45l-2.37-8.231h-1.976v8.23h-2.529V.231h.079zm3.477 7.54a3.524 3.524 0 002.292-.616c.474-.385.711-1.154.711-2.308a4.848 4.848 0 00-.237-1.692 1.975 1.975 0 00-.869-.923 3.69 3.69 0 00-1.739-.308h-1.106v5.77h.948v.076zM81.163 16.462A7.613 7.613 0 0180.058 12V6.154a12.26 12.26 0 01.395-3.308 3.916 3.916 0 011.502-2c.882-.508 1.9-.75 2.924-.692 1.66 0 2.845.384 3.556 1.23a5.771 5.771 0 011.107 3.847v.615H87.17v-.538a11.03 11.03 0 00-.158-1.923 1.533 1.533 0 00-.633-1A2.493 2.493 0 0084.878 2a2.417 2.417 0 00-1.58.462c-.187.152-.338.34-.447.551a1.701 1.701 0 00-.186.68 14.01 14.01 0 00-.158 2.076v6.539a6.818 6.818 0 00.474 2.923c.316.615.949.846 1.897.846.374.045.754-.018 1.092-.182.337-.165.617-.422.805-.741a6.908 6.908 0 00.553-3.077v-1.23h-2.292v-1.77h4.584v8.692h-1.58l-.238-2a3.143 3.143 0 01-1.226 1.658 3.288 3.288 0 01-2.014.573 4.046 4.046 0 01-1.899-.352 3.932 3.932 0 01-1.5-1.186zM94.678 11.615L90.805.308h2.371l2.766 8.461L98.63.308H101l-3.873 11.307v6.154h-2.37v-6.154h-.08z"/>
    </g>
    <defs>
      <clipPath id="clip0">
        <path fill="#fff" d="M0 0h101v18H0z"/>
      </clipPath>
    </defs>
  </symbol>
  <!--arrow-->
  <symbol id="arrow">
    <path stroke="#000" stroke-width="2" d="M0 6h18"/>
    <path d="M24 6l-6.75 5.196V.804L24 6z" fill="#000"/>
  </svg>
</symbol>
<!--logo-cat1-green-->
<symbol id="cat1">
  <circle cx="25" cy="28" r="25" fill="#68B738"/>
  <g clip-path="url(#clip0)">
    <path d="M35.203 0h-.195c-.33.187-.593.474-.75.82a8.028 8.028 0 00-.664 1.757.84.84 0 01-.761.691 3.77 3.77 0 00-2.69 1.948c-.372.661-.69 1.35-.952 2.062-.73 1.897-1.29 3.856-1.98 5.768-.324.872-.339.872-1.316.872-1.168 0-1.085-.18-1.1 1.108 0 .407.123.613.555.593.133 0 .334-.067.385.108.052.175-.123.252-.226.355a4.626 4.626 0 01-2.227 1.258c-.977.263-1.975.47-2.926.789-2.443.82-4.7 1.964-6.46 3.902a14.436 14.436 0 00-2.437 4.041c-1.888 4.454-2.803 9.145-3.513 13.882a97.062 97.062 0 00-.75 6.7C7.102 47.759 7 48.877 7 50h17.141a1.126 1.126 0 00-.118-.66 2.577 2.577 0 00-1.97-1.582c-.36-.083-.401-.191-.18-.475.36-.482.637-1.022.818-1.597.838-2.48 1.162-5.067 1.568-7.63.23-1.956.83-3.85 1.77-5.582a11.126 11.126 0 012.874-3.283c.427-.325.443-.325.515.227.051.366.061.742.087 1.113a48.166 48.166 0 01-.092 7.31 31.866 31.866 0 00-.078 5.67A38.826 38.826 0 0030.503 50h6.84a2.79 2.79 0 00-2.18-2.289 4.62 4.62 0 00-1.934.103c-.309.073-.438 0-.463-.335a29.113 29.113 0 01.514-8.154 91.803 91.803 0 001.574-9.371 9.163 9.163 0 011.172-3.609c.612-1.092 1.147-2.226 1.749-3.324a3.031 3.031 0 00.216-2.676c-.139-.366-.273-.737-.442-1.087-.515-1.005-1.029-2-1.502-3.016-.252-.515-.196-.577.365-.593.838 0 .838 0 .854-.845v-.34c0-.356-.134-.552-.515-.516h-.781c-.355 0-.458-.149-.37-.515a3.217 3.217 0 012.638-2.284 11.291 11.291 0 013.404.222.513.513 0 00.643-.33c.206-.515.432-1.03.664-1.546a.517.517 0 00-.052-.588c-1.646-2.093-3.43-4.046-5.863-5.299a.767.767 0 01-.452-.577 10.123 10.123 0 00-.653-2.144A1.803 1.803 0 0035.203 0z" fill="#000"/>
  </g>
  <defs>
    <clipPath id="clip0">
      <path fill="#fff" transform="translate(7)" d="M0 0h36v50H0z"/>
    </clipPath>
  </defs>
</symbol>
</svg>
