<svg display="none" xmlns="http://www.w3.org/2000/svg">
  <symbol id="logo-word" viewbox="0 0 101 18">
    <g>
      <path d="M1.264 16.538A6.865 6.865 0 010 12.231V5.846a6.95 6.95 0 011.185-4.384C2.055.462 3.398 0 5.374 0s3.24.462 4.03 1.308a5.422 5.422 0 011.186 3.769v1.538H6.718V4.846a3.693 3.693 0 00-.238-1.538 1.12 1.12 0 00-.456-.473 1.163 1.163 0 00-.65-.143c-.553 0-.948.154-1.106.539a4.846 4.846 0 00-.237 1.692v8.23a3.111 3.111 0 00.316 1.616c.158.385.553.539 1.106.539s.87-.154 1.027-.539c.18-.52.26-1.067.238-1.615v-1.846h3.872v1.538a5.775 5.775 0 01-1.185 3.846c-.79.923-2.134 1.385-4.031 1.385-1.897-.077-3.32-.539-4.11-1.539zM15.253.23h4.504l3.32 17.54H19.44l-.632-3.693h-2.608l-.632 3.692h-3.715L15.253.231zm3.24 11.54l-.948-6.847-.949 6.846h1.897zM25.843 3.154h-2.687V.23h9.404v2.846h-2.687v14.692h-4.03V3.154zM39.752.23h6.955v1.847h-4.505v5.77h3.635v1.768h-3.635v6.462h4.505v1.77h-7.034V.23h.079zM48.761.23H50.5l5.137 11.616V.231h2.055v17.538h-1.58l-5.217-12v12h-2.134V.231zM60.063.23h6.954v1.847h-4.504v5.77h3.635v1.768h-3.635v6.462h4.504v1.77h-6.954V.23zM69.072.23h3.635a6.451 6.451 0 014.03 1.078c.87.692 1.265 1.923 1.265 3.538 0 2.23-.71 3.616-2.212 4.077l2.528 8.77h-2.45l-2.37-8.231h-1.976v8.23h-2.529V.231h.079zm3.477 7.54a3.524 3.524 0 002.292-.616c.474-.385.711-1.154.711-2.308a4.848 4.848 0 00-.237-1.692 1.975 1.975 0 00-.869-.923 3.69 3.69 0 00-1.739-.308h-1.106v5.77h.948v.076zM81.163 16.462A7.613 7.613 0 0180.058 12V6.154a12.26 12.26 0 01.395-3.308 3.916 3.916 0 011.502-2c.882-.508 1.9-.75 2.924-.692 1.66 0 2.845.384 3.556 1.23a5.771 5.771 0 011.107 3.847v.615H87.17v-.538a11.03 11.03 0 00-.158-1.923 1.533 1.533 0 00-.633-1A2.493 2.493 0 0084.878 2a2.417 2.417 0 00-1.58.462c-.187.152-.338.34-.447.551a1.701 1.701 0 00-.186.68 14.01 14.01 0 00-.158 2.076v6.539a6.818 6.818 0 00.474 2.923c.316.615.949.846 1.897.846.374.045.754-.018 1.092-.182.337-.165.617-.422.805-.741a6.908 6.908 0 00.553-3.077v-1.23h-2.292v-1.77h4.584v8.692h-1.58l-.238-2a3.143 3.143 0 01-1.226 1.658 3.288 3.288 0 01-2.014.573 4.046 4.046 0 01-1.899-.352 3.932 3.932 0 01-1.5-1.186zM94.678 11.615L90.805.308h2.371l2.766 8.461L98.63.308H101l-3.873 11.307v6.154h-2.37v-6.154h-.08z"/>
    </g>
    <defs>
      <clipPath id="clip0">
        <path fill="#fff" d="M0 0h101v18H0z"/>
      </clipPath>
    </defs>
  </symbol>
  <symbol id="arrow" viewBox="0 0 32 12">
    <path stroke="#000" stroke-width="2" d="M0 6h18"/>
    <path d="M24 6l-6.75 5.196V.804L24 6z" fill="#000"/>
  </symbol>
  <symbol id="cat-1" viewBox="0 0 200 211">
    <circle cx="100" cy="111" r="100" fill="#68B738"/>
    <g clip-path="url(#clip0)">
      <path d="M139.7 0h-.8a7 7 0 00-2.9 3.1c-1.1 2.2-2 4.5-2.6 6.8a3.2 3.2 0 01-3 2.6A14.8 14.8 0 00120 20a53.8 53.8 0 00-3.7 8c-2.8 7.2-5 14.8-7.7 22.1-1.3 3.3-1.3 3.3-5.1 3.3-4.6 0-4.2-.6-4.3 4.3 0 1.6.5 2.4 2.2 2.3.5 0 1.3-.3 1.5.4.2.7-.5 1-1 1.4a18 18 0 01-8.6 4.8c-3.8 1-7.7 1.8-11.4 3a57.4 57.4 0 00-25 15c-4 4.6-7.3 9.9-9.6 15.5a215.3 215.3 0 00-13.6 53.3c-1.3 8.6-2.2 17.1-3 25.8-.3 4.2-.7 8.5-.7 12.8h66.7c0-.9 0-1.8-.5-2.5a9.9 9.9 0 00-7.7-6.1c-1.4-.3-1.5-.7-.7-1.8 1.4-1.9 2.5-4 3.2-6.2 3.3-9.5 4.5-19.4 6.1-29.3a59 59 0 016.9-21.4 43 43 0 0111.2-12.6c1.6-1.3 1.7-1.3 2 .9l.3 4.2c.6 9.4.5 18.8-.3 28.1a120.8 120.8 0 004.2 46.7H148a10.7 10.7 0 00-8.5-8.8c-2.5-.4-5-.2-7.5.4-1.2.3-1.7 0-1.8-1.3-.8-10.5-.2-21 2-31.3 2.7-11.9 4.7-23.9 6.1-36 .5-4.9 2.1-9.6 4.6-13.8 2.4-4.2 4.4-8.6 6.8-12.8a11.5 11.5 0 00.8-10.3c-.5-1.4-1-2.8-1.7-4.2-2-3.8-4-7.6-5.8-11.5-1-2-.8-2.2 1.4-2.3 3.2 0 3.2 0 3.3-3.3v-1.3c0-1.3-.5-2-2-2h-3c-1.4 0-1.8-.5-1.5-2a12.3 12.3 0 0110.3-8.7c4.4-.4 8.9 0 13.2.9a2 2 0 002.5-1.3l2.6-6a2 2 0 00-.2-2.2 70.9 70.9 0 00-24-21.2 3 3 0 01-.6-1.4c-.5-2.8-1.3-5.6-2.5-8.2a7 7 0 00-2.8-3.4z" fill="#000"/>
    </g>
    <defs>
      <clipPath id="clip0">
        <path fill="#fff" transform="translate(30)" d="M0 0h140v192H0z"/>
      </clipPath>
    </defs>
  </symbol>
  <symbol id="cat-2" viewBox="0 0 67 50">
    <circle cx="34.5" cy="25" r="25" fill="#68B738"/>
    <g clip-path="url(#clip0)">
      <path d="M61.5 13.9c.6-1 1.4-1.7 2.3-2.3.5-.3.8-.3 1.1.3.4 1 .8 2 .4 3a1.1 1.1 0 00.3 1l.8 1.2a3.1 3.1 0 01.4 3.1c-.2.5-.2 1-.1 1.6v1.4a1.9 1.9 0 01-1.4 1.7c-.6 0-1.2.4-1.5 1a.5.5 0 01-.5.2c-.6.1-2.1-1.3-2.1-1.9V24c0-1.8 0-1.9-1.7-2.6-.3-.2-.7-.4-.9-.7-.3-.4-.7-.3-1.1-.2-.5.2-.8.5-.7 1 .2 1.2.2 2.4.2 3.7v.3c1.6 2.3 2.2 5 3 7.5.5 2 1.6 3 3.6 3.1l1 .2a2 2 0 011.7 1.6c.4 1 .2 1.3-.9 1.3h-3.3c-.4 0-.8-.1-1.1-.4-.5-.4-1-.8-1.7-1-.7-.3-1.3-.7-1.7-1.3l-2-2.3c-1.4-1.4-2.9-2.8-4.2-4.3-1-1-1.6-2.4-1.6-3.8 0-.4-.1-.6-.6-.4a1 1 0 01-.5.1c-1.4 0-2.1.9-2.6 2.1l-1.6 3.1c-.3.7-.5 1.4-.5 2.1 0 1.2.3 1.6 1.4 2 .7.3 1.4.5 1.7 1.2.4.8.3 1-.6 1h-3.4a1 1 0 01-.9-.5l-.9-1.5a3 3 0 01-.3-2.7 6 6 0 000-2.6 4.2 4.2 0 01.9-3.5c.3-.4.3-.5-.3-.6a25 25 0 01-5.9-2.2c-1.6-.6-1.9-.5-2.4 1.2-.3 1.4-.8 2.8-1 4.3-.4 1.5 0 3 .5 4.5.2.6.8.6 1.3.8 1 .3 1.8.6 2.2 1.7.4.8.3.9-.5.9h-2.6c-.8 0-1.6-.2-2.2-.7-2.4-1.6-3-4-3.3-6.7 0-1.7-1-3-2-4.2-.2-.3-.4-.3-.7-.1l-3.4 1.4c-2.4.9-4.5 2.4-6 4.4-.6.8-1 1.7-1.2 2.6-.1.9.2 1.3 1 1.5 1 .3 1.4.8 1.5 1.8 0 .4-.1.5-.5.5h-4a.8.8 0 01-.7-.4c-.6-.7-1-1.7-1-2.7 0-1.7.2-3.5.5-5.1a3.1 3.1 0 011.7-2.4c3-1.4 4.5-4.1 5.9-6.8.3-.6 0-.7-.4-.7-1.4.2-2.8.8-3.9 1.7-1.5 1-2.9 2.2-4.2 3.5A8.3 8.3 0 015.3 27C1.5 27.4-.2 25.3 0 22c0-1.1.5-2.2 1.2-3a2.1 2.1 0 012.2-.8c.8.2 1 .6.7 1.3l-.5.9-.5 1c-.6 1.5.2 2.6 1.7 2.7 1.7.1 3-.6 4.3-1.6 1.5-1.2 2.9-2.6 4-4.1a10.4 10.4 0 017.2-4c1.1-.2 2.1-.7 3.3-1 2-.6 4.1-1 6.3-.9 1 0 2-.1 2.9-.6 2.5-1 5-1 7.6-.5l5.9 1.4c1.2.3 2.4.2 3.5 0 2.2-.6 4.4-1 6.7-1a9 9 0 014.3.8c1 .4 1 .4.8 1.4z" fill="#000"/>
    </g>
    <defs>
      <clipPath id="clip0">
        <path fill="#fff" transform="translate(0 11)" d="M0 0h67v28H0z"/>
      </clipPath>
    </defs>
  </symbol>
  <symbol id="vkontakte" viewbox="0 0 29 18">
    <path fill="carrentColor" d="M.1 2.49c0-.86.54-1.32 1.65-1.38L6 1.13c.29 0 .48.13.57.38.44 1.26.93 2.34 1.47 3.26.54.9 1.25 1.96 2.13 3.15.07.15.2.23.37.23.13 0 .24-.06.31-.18l.09-.27.03-4.36c0-.3-.08-.5-.25-.6-.16-.1-.46-.17-.9-.23-.34-.05-.5-.23-.5-.55 0-.07 0-.12.02-.15C9.74.72 10.88.18 12.77.18l1.6-.03c.72 0 1.32.16 1.8.48.47.32.7.82.7 1.5v5.72a.7.7 0 00.38.12c.28 0 .53-.15.74-.45 2.1-2.58 3.23-4.3 3.4-5.18l.05-.13c.14-.25.36-.47.66-.65.3-.19.57-.31.8-.38a.63.63 0 01.26-.05h4.42l.29.03a1 1 0 01.88.47c.08.1.13.21.16.33a2.26 2.26 0 01.07.55v.18a5.9 5.9 0 01-1.01 2.2c-.55.78-1.24 1.62-2.07 2.53-.84.9-1.36 1.5-1.57 1.78-.17.2-.26.39-.26.56 0 .13.08.28.23.45l4.17 4.63c.22.27.34.56.34.88 0 .38-.17.7-.51.95-.35.25-.76.4-1.23.43l-.49.03h-4.45l-.11.02c-.42 0-.81-.16-1.18-.48l-2.68-2.96c-.1-.12-.23-.23-.4-.33l-.3 1.16-.27 1.08-.09.42c-.19.6-.58.94-1.2 1.06l-.4.03h-2.8c-1.57 0-3.15-.64-4.72-1.92a19.62 19.62 0 01-4.23-4.94A46.12 46.12 0 01.23 3.22a1.8 1.8 0 01-.14-.73zM17.24 9c-.4 0-.76-.1-1.09-.29-.32-.19-.48-.45-.48-.79V2.14c0-.34-.1-.58-.29-.72-.19-.14-.52-.21-1-.21l-1.62.05c-.82 0-1.44.12-1.86.37.84.36 1.26.93 1.26 1.71v4.43c-.04.42-.23.77-.57 1.04-.35.28-.73.42-1.15.42-.57 0-1-.24-1.3-.73a25.68 25.68 0 01-3.32-5.63l-.26-.66-3.8-.02c-.24 0-.38.01-.4.04-.04.02-.05.1-.05.2 0 .16.02.32.06.49l.6 1.4c1.6 3.64 3.33 6.51 5.2 8.6 1.88 2.1 3.72 3.15 5.53 3.15h2.85c.12 0 .2-.03.26-.09s.1-.17.14-.34l.06-.25.54-2.21c.15-.3.29-.5.4-.6.21-.2.46-.28.74-.28.46 0 .93.24 1.4.73l2.43 2.71c.15.22.31.33.48.33h4.72c.57 0 .85-.13.85-.38a.44.44 0 00-.08-.25l-4.14-4.55a1.65 1.65 0 01-.49-1.13c0-.4.15-.8.46-1.16.25-.33.73-.9 1.44-1.67.71-.78 1.34-1.51 1.87-2.19.53-.68.88-1.3 1.06-1.85l.08-.32a.35.35 0 01-.03-.17c0-.07 0-.14-.03-.19h-4.48c-.28.1-.51.25-.68.46l-.17.47C21.9 4.3 20.66 6.1 18.65 8.5c-.4.34-.87.5-1.4.5z"/>
  </symbol>
  <symbol id="instagram" viewbox="0 0 23 23">
    <path fill="carrentColor" d="M11.477.09c1.917 0 3.482.022 4.695.067 1.033.045 1.954.225 2.763.54.778.299 1.452.733 2.021 1.302a5.732 5.732 0 011.303 2.022c.314.808.494 1.729.539 2.762.045 1.213.067 2.778.067 4.694 0 1.917-.022 3.482-.067 4.695-.045 1.033-.225 1.954-.54 2.763a5.733 5.733 0 01-1.302 2.021 5.733 5.733 0 01-2.021 1.303c-.809.314-1.73.494-2.763.539-1.213.045-2.778.067-4.695.067-1.916 0-3.48-.022-4.694-.067-1.033-.045-1.954-.225-2.762-.54a5.732 5.732 0 01-2.022-1.302 5.733 5.733 0 01-1.303-2.021c-.314-.809-.494-1.73-.539-2.763a131.868 131.868 0 01-.067-4.695c0-1.916.022-3.48.067-4.694.045-1.033.225-1.954.54-2.762.299-.78.733-1.453 1.302-2.022A5.731 5.731 0 014.021.696C4.829.382 5.75.202 6.783.157 7.996.112 9.561.09 11.477.09zm0 1.482c-1.991 0-3.616.023-4.873.068a7.21 7.21 0 00-2.247.426c-1.078.45-1.841 1.213-2.29 2.291a7.21 7.21 0 00-.427 2.247 142.032 142.032 0 00-.068 4.873c0 1.992.023 3.617.068 4.875a7.21 7.21 0 00.426 2.246c.45 1.078 1.213 1.841 2.291 2.29a7.211 7.211 0 002.247.427c1.257.045 2.882.068 4.873.068 1.992 0 3.617-.023 4.875-.068a7.211 7.211 0 002.246-.426c1.078-.45 1.841-1.213 2.29-2.291a7.211 7.211 0 00.427-2.246c.045-1.258.068-2.883.068-4.875 0-1.991-.023-3.616-.068-4.873a7.211 7.211 0 00-.426-2.247c-.45-1.078-1.213-1.841-2.291-2.29a7.21 7.21 0 00-2.246-.427 142.035 142.035 0 00-4.875-.068zm0 14.465c1.258 0 2.333-.445 3.224-1.336.89-.891 1.336-1.966 1.336-3.224 0-1.257-.445-2.332-1.336-3.223-.891-.89-1.966-1.336-3.224-1.336-1.257 0-2.332.445-3.223 1.336-.89.891-1.336 1.966-1.336 3.223 0 1.258.445 2.333 1.336 3.224.891.89 1.966 1.336 3.223 1.336zm0-10.4c1.618 0 2.995.57 4.133 1.708s1.707 2.515 1.707 4.132c0 1.618-.569 2.995-1.707 4.133-1.138 1.138-2.515 1.707-4.133 1.707-1.617 0-2.994-.569-4.132-1.707-1.138-1.138-1.707-2.515-1.707-4.133 0-1.617.569-2.994 1.707-4.132 1.138-1.138 2.515-1.707 4.132-1.707zm7.458-.224c0 .374-.135.693-.405.955s-.599.393-.988.393a1.3 1.3 0 01-.955-.393 1.3 1.3 0 01-.393-.955c0-.39.131-.719.393-.988.262-.27.58-.404.955-.404.374 0 .7.138.977.415.277.277.416.603.416.977z"/>
  </symbol>
  <symbol id="facebook" viewbox="0 0 13 20">
    <path fill="carrentColor" fill-rule="evenodd" clip-rule="evenodd" d="M5.12 1.76A5.18 5.18 0 018.75.28h2.75c.3 0 .55.25.55.55v3.6c0 .3-.25.55-.55.55H8.75c-.1 0-.2.04-.26.1a.34.34 0 00-.1.25v2.14h3.11a.55.55 0 01.53.69l-.91 3.6a.55.55 0 01-.54.4h-2.2v6.65c0 .3-.24.55-.55.55H4.17a.55.55 0 01-.55-.55v-6.64h-2.2a.55.55 0 01-.55-.55v-3.6c0-.3.24-.55.55-.55h2.2V5.33a5 5 0 011.5-3.57zm3.63-.38c-1.07 0-2.1.42-2.86 1.16a3.9 3.9 0 00-1.17 2.79v2.7c0 .3-.25.54-.55.54h-2.2v2.5h2.2c.3 0 .55.25.55.55v6.64h2.56v-6.64c0-.3.25-.55.55-.55h2.33l.63-2.5H7.83a.55.55 0 01-.55-.55v-2.7a1.48 1.48 0 011.47-1.45h2.2V1.39h-2.2z"/>
  </symbol>
  <symbol id="academy-word" viewbox="0 0 113 16">
    <path d="M.281 12V.547h1.516V5.25H7.75V.547h1.516V12H7.75V6.602H1.797V12H.28zm14.43 0V1.898h-3.774V.547h9.079v1.351h-3.79V12h-1.515zm6.82 0V.547h2.282l2.71 8.11c.25.754.433 1.32.547 1.695.13-.417.334-1.03.61-1.836l2.742-7.97h2.039V12H31V2.414L27.672 12h-1.367l-3.313-9.75V12h-1.46zm13.313 0V.547h1.515v10.101H42V12h-7.156zm10.68 0L49.921.547h1.633L56.242 12h-1.726L53.18 8.531h-4.79L47.134 12h-1.61zm3.304-4.703h3.883l-1.195-3.172a31.346 31.346 0 01-.813-2.375 14.587 14.587 0 01-.617 2.188l-1.258 3.359zm13.86 1.664l1.382.18c-.15.953-.539 1.7-1.164 2.242-.62.536-1.383.805-2.289.805-1.135 0-2.05-.37-2.742-1.11-.688-.745-1.031-1.81-1.031-3.195 0-.896.148-1.68.445-2.352.297-.672.747-1.174 1.352-1.508a4.02 4.02 0 011.984-.507c.901 0 1.638.229 2.21.687.574.453.941 1.1 1.102 1.938l-1.367.21c-.13-.557-.362-.976-.695-1.257-.328-.282-.727-.422-1.195-.422-.709 0-1.284.255-1.727.766-.443.505-.664 1.307-.664 2.406 0 1.114.214 1.924.64 2.43.428.505.985.757 1.673.757.552 0 1.013-.169 1.382-.508.37-.338.605-.859.703-1.562zm8 2.016c-.521.442-1.024.755-1.508.937-.48.182-.995.274-1.547.274-.912 0-1.612-.222-2.102-.665-.49-.447-.734-1.018-.734-1.71 0-.407.091-.777.273-1.11.188-.338.43-.61.727-.812a3.47 3.47 0 011.016-.461c.275-.073.692-.144 1.25-.211 1.135-.136 1.97-.297 2.507-.485.006-.192.008-.315.008-.367 0-.573-.133-.976-.398-1.21-.36-.318-.894-.477-1.602-.477-.661 0-1.15.117-1.469.351-.312.23-.544.638-.695 1.227L65.04 6.07c.125-.588.33-1.062.617-1.422.287-.364.7-.643 1.242-.835.542-.198 1.17-.297 1.883-.297.709 0 1.284.083 1.727.25.443.166.768.377.976.632.209.25.355.568.438.954.047.24.07.671.07 1.296v1.875c0 1.308.029 2.136.086 2.485.063.344.182.674.36.992h-1.47a2.981 2.981 0 01-.28-1.023zm-.118-3.141c-.51.208-1.276.385-2.297.531-.578.084-.986.177-1.226.281a1.214 1.214 0 00-.75 1.125c0 .375.14.688.422.938.286.25.703.375 1.25.375.541 0 1.023-.117 1.445-.352.422-.24.732-.565.93-.976.15-.318.226-.787.226-1.406v-.516zM79.563 12v-1.047c-.526.823-1.3 1.235-2.32 1.235-.662 0-1.272-.183-1.829-.547-.552-.365-.982-.873-1.289-1.524-.302-.656-.453-1.409-.453-2.258 0-.828.138-1.578.414-2.25.276-.677.69-1.195 1.242-1.554.552-.36 1.17-.54 1.852-.54.5 0 .945.107 1.336.32.39.21.708.483.953.821V.546h1.398V12h-1.305zm-4.446-4.14c0 1.062.224 1.856.672 2.382.448.526.977.79 1.586.79.615 0 1.135-.25 1.563-.75.432-.506.648-1.274.648-2.305 0-1.136-.219-1.97-.656-2.5-.438-.532-.977-.797-1.618-.797-.624 0-1.148.255-1.57.765-.416.51-.625 1.315-.625 2.414zm13.649 1.468l1.453.18c-.23.849-.654 1.508-1.274 1.976-.62.47-1.411.704-2.375.704-1.213 0-2.177-.373-2.89-1.118-.709-.75-1.063-1.8-1.063-3.148 0-1.396.36-2.48 1.078-3.25.72-.771 1.651-1.156 2.797-1.156 1.11 0 2.016.377 2.719 1.132.703.756 1.055 1.818 1.055 3.188 0 .083-.003.208-.008.375H84.07c.052.911.31 1.61.774 2.094.463.484 1.041.726 1.734.726.516 0 .956-.135 1.32-.406.365-.27.654-.703.868-1.297zm-4.618-2.273h4.633c-.062-.698-.24-1.222-.531-1.57-.448-.542-1.029-.813-1.742-.813-.646 0-1.19.216-1.633.648-.438.433-.68 1.01-.727 1.735zM91.992 12V3.703h1.258v1.164c.26-.406.607-.732 1.04-.976.431-.25.923-.375 1.476-.375.614 0 1.117.127 1.507.382.396.256.675.612.836 1.07.657-.968 1.51-1.452 2.563-1.452.823 0 1.456.229 1.898.687.443.453.664 1.154.664 2.102V12h-1.398V6.773c0-.562-.047-.966-.141-1.21a1.15 1.15 0 00-.492-.602 1.548 1.548 0 00-.844-.227c-.583 0-1.067.196-1.453.586-.385.386-.578 1.006-.578 1.86V12h-1.406V6.61c0-.626-.115-1.094-.344-1.407-.229-.312-.604-.469-1.125-.469-.396 0-.763.105-1.101.313a1.778 1.778 0 00-.727.914c-.151.401-.227.98-.227 1.734V12h-1.406zm13.266 3.195l-.156-1.32c.307.083.575.125.804.125.313 0 .563-.052.75-.156.188-.104.341-.25.461-.438.089-.14.232-.49.43-1.047.026-.078.068-.192.125-.343l-3.149-8.313h1.516l1.727 4.805c.224.61.424 1.25.601 1.922.162-.646.354-1.276.578-1.89l1.774-4.837h1.406l-3.156 8.438c-.339.911-.602 1.539-.789 1.882-.25.464-.537.803-.86 1.016-.323.219-.708.328-1.156.328-.271 0-.573-.057-.906-.172z" fill="#444"/>
  </symbol>
  <symbol id="academy-logo" viewbox="0 0 113 16">
    <path d="M13.6426 0.0157537L13.5 0L0 1.40733V26.0129L13.5 34L27 26.0129V1.40733L13.6426 0.0157537ZM25.2344 25.0151L13.5 31.9573L1.76561 25.0151V14.9293L13.4507 21.8451L13.4701 23.0984L5.45351 18.3548L5.44295 19.5801L13.4894 24.3885L13.5088 25.675L5.46408 20.9174L5.45351 22.1427L13.5 26.9511L21.6239 22.1182V20.8929V16.909L25.2432 14.7595L25.2344 25.0151ZM25.2344 13.4519L22.0147 15.3319L20.5325 16.2071L13.4666 12.0201L13.456 13.2454L19.4957 16.818L19.4429 16.8495L19.3126 16.9247L18.4536 17.4166L13.4666 14.4689L13.456 15.6942L17.3921 18.0222L16.4591 18.6314L16.438 18.6436L13.4666 16.902L13.456 18.1273L15.4029 19.2615L13.4155 20.4483L1.7973 13.5762L13.4349 6.61831L25.2344 13.4519ZM25.2344 12.2266L13.4401 5.31075L1.76561 12.2196V2.9897L13.5 1.76442L25.2344 2.9897V12.2266Z" fill="#666666"/>
  </symbol>
</svg>
