<svg width="28" height="18" fill="none" xmlns="http://www.w3.org/2000/svg"><path d="M0 2.5C0 1.6.7 1.2 1.7 1h4c.3 0 .4.2.5.4.4 1.3.9 2.4 1.4 3.3A39.8 39.8 0 009.8 8l.3-.1.1-.3V3.3c0-.3 0-.5-.2-.6l-.8-.2c-.3 0-.5-.2-.5-.5v-.2C9.1.8 10.2.2 12 .2h1.5c.7 0 1.2.1 1.7.4.4.3.7.9.7 1.5v5.7l.3.2c.3 0 .5-.2.7-.5A17.7 17.7 0 0020 2.2c.1-.2.3-.5.6-.6l.8-.4H26c.4 0 .6.1.8.4l.2.4a2.4 2.4 0 010 .5v.2c0 .7-.4 1.4-.9 2.2-.5.8-1.1 1.6-2 2.5a27.6 27.6 0 00-1.6 2.4l.2.4 3.9 4.6c.2.3.3.6.3 1 0 .3-.2.6-.5.9a2 2 0 01-1.1.4h-4.5H20.5c-.3 0-.7-.1-1-.4a240 240 0 01-3-3.3 38.5 38.5 0 00-.5 2.2v.4c-.2.6-.6 1-1.2 1.1H12c-1.5 0-3-.6-4.4-1.9-1.5-1.3-2.8-3-4-5A47.5 47.5 0 01.1 2.6zM16.2 9c-.4 0-.7 0-1-.3a.9.9 0 01-.5-.8V2.1c0-.3 0-.5-.2-.7l-1-.2H12c-.7 0-1.3.2-1.7.4.8.4 1.2 1 1.2 1.7v4.5c0 .4-.3.7-.6 1-.3.3-.7.4-1 .4-.6 0-1-.2-1.3-.7-1.4-2-2.4-3.9-3-5.6l-.3-.7H1.3V3l.5 1.4a33 33 0 005 8.6c1.7 2.1 3.4 3.2 5 3.2h2.7l.3-.1.1-.4v-.2l.6-2.2.3-.6c.2-.2.5-.3.7-.3.5 0 .9.2 1.3.7l2.3 2.7c.1.3.3.4.4.4H25c.6 0 .8-.2.8-.4v-.3L21.8 11c-.3-.4-.5-.7-.5-1.1 0-.4.2-.8.5-1.2L23 6.9 25 4.7c.5-.6.8-1.3 1-1.8v-.3-.2-.2h-4.2c-.3.1-.5.3-.6.5l-.2.4c-.5 1.2-1.6 3-3.5 5.4-.4.3-.8.5-1.3.5z" fill="#666"/></svg>